<svg id="Layer_1" data-name="Layer 1" xmlns="http://www.w3.org/2000/svg" viewBox="0 0 800 800"><defs><style>.cls-1{fill:#fff;}</style></defs><title>doortask logo</title><path class="cls-1" d="M228.48,282.85a3,3,0,0,0,2.26,3.41,1.86,1.86,0,0,0,.52.07c9.05,0,18.13.16,27.13.18,11.3,0,19.24-2.65,27.18-10.9,34.18-35.49,69-70.33,103.75-105.3,12-12.12,23.6-12.16,35.79-.33,5.84,5.68,11.22,11.81,17,17.59q97.84,98.67,195.75,197.27c4.8,4.83,9.95,9.68,6.59,17.27-3.17,7.19-9.84,8.08-16.86,8-15.19-.12-30.39-.15-45.58,0-16.86.16-15.19-2.48-15.21,15.52-.08,62.26,0,124.51-.07,186.77,0,15.33-6,22.4-19.69,22.41q-140.07.18-280.15,0c-12.45,0-18.93-6.87-19.07-19.41-.18-15.19-.05-30.39-.05-45.58,0-25.58,0-25.33-25.63-24.22-6.64.29-8,3-7.95,8.78.19,21.49-.48,43,.23,64.47.89,27.16,21.67,48.24,48.25,48.33q144.53.49,289,.07c18.66,0,32.1-9.55,41.68-25.17,6.55-10.67,6.58-22.54,6.6-34.38.08-51.14.25-102.28-.17-153.42-.08-9.41,2.94-12.45,12.05-11.75a155.57,155.57,0,0,0,24.42-.22c18.57-1.47,32.1-10.63,39.22-28.07,7.36-18.07,3.42-34.56-9.86-48.06Q556.44,255.3,446.67,145c-22.62-22.71-58.13-21.67-80.66,1.19-29.66,30.08-59.14,60.32-89.06,90.14-15.6,15.55-31.94,30.36-48,45.5A1.67,1.67,0,0,0,228.48,282.85Zm-62.62,227.2V510c29.21,0,58.43.05,87.65,0,7.31,0,14-2.55,14.29-10.7.24-7.43-6.3-10.22-12.74-11.7a29.87,29.87,0,0,0-6.63-.42q-81.56,0-163.11-.06c-4.52,0-8.86.49-12.89,2.58s-6.43,5-6.3,9.62c.15,5.15,3.32,8.42,7.76,9.7,3.81,1.1,8,1,12.08,1.06C112.59,510.09,139.23,510.05,165.86,510.05Zm-.1-132.11v.1c-17,0-34.08-.25-51.1.12-6.77.15-12.75,3.21-13,11s5.85,10.38,12.52,11.47a27.35,27.35,0,0,0,4.44.19c31.11,0,62.22.07,93.32,0,8.18,0,16.81-1.21,16.63-11.74-.18-9.73-8.39-11-16.2-11.06C196.87,377.86,181.31,377.94,165.76,377.94Zm38.16,55.42h-30c-7,0-13.13,2.23-14.05,9.69-1,7.83,5.45,11.66,11.82,12.19a366.34,366.34,0,0,0,65.32-.09c5.94-.57,12-4.07,11.41-11.41-.58-7.62-6.4-10.27-13.41-10.33C224.65,433.33,214.28,433.39,203.92,433.36Z"/><polygon class="cls-1" points="334.42 352.99 334.42 353.35 459.96 363.57 459.96 597.75 334.42 607.99 334.42 608.33 480.14 608.33 480.14 352.99 334.42 352.99"/><ellipse class="cls-1" cx="445.49" cy="481.7" rx="4.45" ry="5.16"/></svg>