<?xml version="1.0"?>
<svg xmlns="http://www.w3.org/2000/svg" height="512px" viewBox="0 -7 468.00537 468" width="512px"><path d="m7.6875 382.003906h155.761719l-15.511719 56h-27.46875c-4.417969 0-8 3.582032-8 8 0 4.417969 3.582031 8 8 8h227.066406c4.417969 0 8-3.582031 8-8 0-4.417968-3.582031-8-8-8h-27.46875l-15.511718-56h155.765624c2.042969.085938 4.027344-.683594 5.484376-2.117187 1.457031-1.433594 2.253906-3.410157 2.199218-5.453125v-366.1875c0-4.417969-3.265625-8.24218775-7.683594-8.24218775h-452.632812c-4.417969 0-7.68359375 3.82421875-7.68359375 8.24218775v366.1875c-.05468745 2.042968.73828175 4.019531 2.19531275 5.453125 1.457031 1.433593 3.445312 2.203125 5.488281 2.117187zm295.761719 56h-138.898438l15.511719-56h107.871094zm-287.445313-422h436v280h-436zm436 296v54h-436v-54zm0 0" fill="#FFFFFF"/><path d="m303.023438 76.003906h-54.644532c-4.53125.0625-8.214844 3.667969-8.375 8.199219v145.597656c.160156 4.53125 3.84375 8.140625 8.375 8.203125h54.644532c26.535156-.125 47.980468-21.667968 47.980468-48.203125v-65.597656c0-26.535156-21.445312-48.078125-47.980468-48.199219zm31.980468 113.796875c.007813 17.703125-14.277344 32.085938-31.980468 32.203125h-47.019532v-130h47.019532c17.703124.113282 31.988281 14.5 31.980468 32.199219zm0 0" fill="#FFFFFF"/><path d="m190.140625 76.003906h-65.523437c-4.417969 0-8 3.582032-8 8 0 4.417969 3.582031 8 8 8h65.523437c3.71875.070313 6.734375 3.039063 6.863281 6.757813v43.679687c-.148437 3.679688-3.183594 6.582032-6.863281 6.5625h-65.523437c-4.417969 0-8 3.582032-8 8 0 4.417969 3.582031 8 8 8h65.523437c3.679687-.019531 6.714844 2.878906 6.863281 6.558594v43.683594c-.128906 3.71875-3.144531 6.6875-6.863281 6.757812h-65.523437c-4.417969 0-8 3.582032-8 8 0 4.417969 3.582031 8 8 8h65.523437c12.550781-.082031 22.722656-10.207031 22.863281-22.757812v-43.683594c.003906-5.332031-1.894531-10.496094-5.347656-14.558594 3.453125-4.066406 5.351562-9.226562 5.347656-14.5625v-43.679687c-.140625-12.550781-10.3125-22.675781-22.863281-22.757813zm0 0" fill="#FFFFFF"/></svg>
