<svg id="_ÎÓÈ_1" data-name="—ÎÓÈ_1" xmlns="http://www.w3.org/2000/svg" viewBox="0 0 500 500"><defs><style>.cls-1{fill:#513781;}.cls-1,.cls-2,.cls-3{fill-rule:evenodd;}.cls-2{fill:#a099b8;}.cls-3{fill:#715f9c;}</style></defs><title>293 [Converted]</title><path class="cls-1" d="M24.56,157.06H475.44a7.26,7.26,0,0,1,7.27,7.13v5.2H17.28v-5.2a7.26,7.26,0,0,1,7.27-7.13h0Z"/><polygon class="cls-2" points="482.72 164.93 482.72 169.38 250.07 169.38 17.28 169.38 17.28 164.93 482.72 164.93"/><path class="cls-3" d="M488.8,169.38H11.2A8.62,8.62,0,0,0,2.59,178V303.15H497.41V178a8.62,8.62,0,0,0-8.61-8.61h0Z"/><path class="cls-1" d="M2.59,255.2v48H497.41v-48C429,242,343.16,234,250.07,234S71,242,2.59,255.2h0Z"/><path class="cls-1" d="M482.27,342.94H17.73c-6.38,0-14.7-18.71-15.14-39.79H497.41c-0.45,21.08-8.76,39.79-15.14,39.79h0Z"/><path class="cls-2" d="M471,312.21c-3.12,9.65-7.57,16.18-11.43,16.18H40.44c-3.86,0-8.31-6.53-11.43-16.18,64.43-3,140-4.75,221.06-4.75s156.48,1.78,220.91,4.75h0Z"/><path class="cls-3" d="M452.28,311.32c-2.52,5.49-5.64,8.91-8.31,8.91H56c-2.67,0-5.79-3.41-8.31-8.91,60.13-2.37,129-3.86,202.36-3.86s142.08,1.49,202.21,3.86h0Z"/><path class="cls-2" d="M231.22,275.54h37.71A7.32,7.32,0,0,1,276.2,283h0a7.29,7.29,0,0,1-7.27,7.27H231.22A7.32,7.32,0,0,1,223.8,283h0a7.35,7.35,0,0,1,7.42-7.42h0Z"/></svg>