<svg id="Layer_1" data-name="Layer 1" xmlns="http://www.w3.org/2000/svg" viewBox="0 0 450 450"><defs><style>.cls-1{fill:#583485;}.cls-2{fill:#785fa0;}</style></defs><title>12790 [Converted]</title><path class="cls-1" d="M174.68,210.81a51,51,0,0,1,6.16-7.38l38.51-38.51-61.09-61.09-22.64,22.64-22.4,22.4-0.24.24Z"/><path class="cls-1" d="M446.93,366.94l0,0a13.72,13.72,0,0,0-18.9-.46l-16.76-16.75-12.51,12.57a9.13,9.13,0,0,1-12.88-12.94l12.51-12.51-9.89-9.89L376,339.46a9.06,9.06,0,0,1-12.82-12.82l12.51-12.51-9.89-9.89-12.51,12.51a9.13,9.13,0,0,1-12.94-12.88l12.57-12.51-9.89-9.89L330.49,294a9.06,9.06,0,0,1-12.82-12.82l12.57-12.51-14.8-14.8A13.73,13.73,0,0,0,295.51,235l-51.37,51.37a13.73,13.73,0,0,0,18.85,20L375.62,418.9a13.71,13.71,0,0,0,.45,18.9h0a13.76,13.76,0,0,0,19.48,0l51.36-51.37a13.76,13.76,0,0,0,0-19.47h0Z"/><path class="cls-1" d="M43.17,203.08a11.2,11.2,0,0,0,15.82,0l16.32-16.32a11.19,11.19,0,0,0,0-15.82L70,165.69l14.45-14.46a22.24,22.24,0,0,0,28.74-2.35L158,104.07a22.3,22.3,0,0,0,0-31.61l-6.63-6.63c47.77-47.77,78.37-22.22,78.37-22.22L243.6,29.76C200-13.86,134.66,17.61,103.53,45.5l-0.07,0a12.6,12.6,0,0,0-2.14,1.83L56.53,92.17A22.4,22.4,0,0,0,54,120.74l-0.28-.28L39.27,134.92l-4.84-4.84a11.18,11.18,0,0,0-15.82,0L2.3,146.4a11.2,11.2,0,0,0,0,15.81Zm62.36-66.79a9.94,9.94,0,0,1-14.1,0L69.1,114a10,10,0,0,1,0-14.1L109,59.95a10,10,0,0,1,14.1,0l22.34,22.34a10.05,10.05,0,0,1,0,14.1"/><path class="cls-2" d="M177.92,239.8A39.3,39.3,0,0,0,245,267.57L408.05,104.5l0,0,15.84-15.83L412.81,77.59l-9.94,5.93,6.05-9.82-3.58-3.58-6.44,3.71,4-6.14L368.38,33.15,352.53,49l0,0L189.45,212A39.6,39.6,0,0,0,177.92,239.8ZM198,220.58L361.06,57.51,399.51,96,236.44,259A27.18,27.18,0,1,1,198,220.58Z"/><path class="cls-2" d="M199.33,326a15.37,15.37,0,0,0,0-21.7l-46.6-46.6a15.31,15.31,0,0,0-22.5,20.72L21,387.61c-7.08,7.08-7.8,17.8-1.63,24l26,26c6.18,6.17,16.9,5.44,24-1.63L178.62,326.79A15.29,15.29,0,0,0,199.33,326Z"/></svg>