<svg id="OBJECTS" xmlns="http://www.w3.org/2000/svg" xmlns:xlink="http://www.w3.org/1999/xlink" viewBox="0 0 500 500"><defs><style>.cls-1{fill:none;}.cls-2{fill:#583485;}.cls-3{fill:#a69bbc;}.cls-4{fill:#f5f5f5;}.cls-5{clip-path:url(#clip-path);}.cls-6{fill:#66afaa;}.cls-7{fill:#fff;}.cls-8{fill:#785fa0;}</style><clipPath id="clip-path"><rect class="cls-1" x="89.35" y="51.91" width="335.92" height="350.45"/></clipPath></defs><title>509261-PI5K4Y-867</title><path class="cls-2" d="M418.91,370.11a10.38,10.38,0,0,1-10.38,10.38H57.23a10.38,10.38,0,0,1-10.38-10.38V142.52a10.38,10.38,0,0,1,10.38-10.38h351.3a10.38,10.38,0,0,1,10.38,10.38V370.11Z"/><path class="cls-2" d="M413.53,362.13a9.91,9.91,0,0,1-10.08,9.72H62.3a9.91,9.91,0,0,1-10.08-9.72V149a9.91,9.91,0,0,1,10.08-9.72H403.45A9.91,9.91,0,0,1,413.53,149v213.1Z"/><rect class="cls-3" x="63.37" y="148.13" width="339.01" height="216.37"/><polygon class="cls-4" points="52.22 380.49 0.07 442.52 471.26 442.52 413.53 380.49 52.22 380.49"/><polygon class="cls-2" points="63.55 386.33 38.32 418.55 433.94 418.55 406.09 386.33 63.55 386.33"/><polygon class="cls-2" points="189.18 425.49 182.32 434.26 289.94 434.26 282.36 425.49 189.18 425.49"/><path class="cls-2" d="M456.57,457.21H14.76A14.69,14.69,0,0,1,.07,442.52H471.26A14.69,14.69,0,0,1,456.57,457.21Z"/><g class="cls-5"><circle class="cls-6" cx="189.02" cy="418.98" r="3.92" transform="translate(-266.79 359.75) rotate(-58.32)"/><circle class="cls-6" cx="179.66" cy="434.14" r="3.92" transform="translate(-284.16 359.16) rotate(-58.34)"/><circle class="cls-6" cx="170.53" cy="448.93" r="3.92" transform="matrix(0.53, -0.85, 0.85, 0.53, -301.07, 358.29)"/><path class="cls-7" d="M102,261c8,24.44,23.49,41.3,34.67,37.66s13.76-26.41,5.79-50.86-23.5-41.3-34.67-37.66S94,236.56,102,261Z"/><path class="cls-8" d="M393.27,250.56c1.31,3.46,0,6-3,5.69-86.27-7.6-169.81,9.14-249.67,41.46-2.48,1-5,.54-5.59-1.08-10.26-27-18.39-53.44-28.65-80.43-0.61-1.63-1.2-4.19,1.32-5.07,81.17-28.91,154.71-71.9,214.15-134.89,2-2.19,4.72-1.2,6,2.25Z"/><path class="cls-2" d="M212.35,273.2c-36.35,10.69-59.46,19.88-75.9,25.8-22.35-26.32-30.72-53.39-31.33-88,20.55-7.45,48.3-18.15,73-29.86C176.79,206.53,192.86,255.43,212.35,273.2Z"/><path class="cls-2" d="M388,273.42a22.7,22.7,0,0,0,6.29-1.4c9.24-3.51,20-14.5,18.86-46.9-0.77-21.81-6.85-48.68-17.11-75.67s-23.57-51.11-37.48-67.92-27-24.85-39-23.92a22.49,22.49,0,0,0-6.28,1.4c-9.24,3.51-20,14.5-18.86,46.9,0.77,21.81,6.85,48.68,17.11,75.67s23.57,51.11,37.48,67.92S376.07,274.34,388,273.42Z"/><path class="cls-8" d="M393.27,269.28c8.35-3.17,18.06-13.4,17-44.06-0.76-21.49-6.77-48-16.92-74.73S370,100,356.32,83.4c-19.56-23.64-33.61-24.82-42-21.65s-18.06,13.39-17,44.05c0.76,21.5,8.52,52.86,16.92,74.73,10.24,26.66,23.29,50.52,37,67.1C370.87,271.27,384.93,272.45,393.27,269.28Z"/><path class="cls-2" d="M395,261.31c7.46-2.84,16-12.41,14.26-41.87-1.22-20.66-7.31-46.28-17.15-72.15S369.8,98.23,357,82c-18.27-23.18-31-24.66-38.48-21.82s-16,12.41-14.26,41.87c1.22,20.65,7.31,46.28,17.15,72.15s22.3,49.07,35.12,65.32C374.79,262.67,387.53,264.15,395,261.31Z"/><ellipse class="cls-7" cx="355.73" cy="164.78" rx="35.43" ry="104.18" transform="translate(-35.34 137.18) rotate(-20.82)"/><path class="cls-2" d="M312.72,146.47a311.73,311.73,0,0,0,42.94-8.39,2.14,2.14,0,0,1,2.61,1l16.34,41.54a2,2,0,0,1-1.25,2.33,306.93,306.93,0,0,0-38.49,22.55c-3.8-7.57-7.43-15.66-10.79-24.15A289.86,289.86,0,0,1,312.72,146.47Z"/><ellipse class="cls-8" cx="364.12" cy="161.17" rx="8.45" ry="25.46" transform="matrix(0.93, -0.37, 0.37, 0.93, -33.79, 146.13)"/><ellipse class="cls-2" cx="365.04" cy="160.11" rx="5.3" ry="22.29" transform="translate(-33.33 146.39) rotate(-21.71)"/></g><polygon class="cls-8" points="391.58 95.83 396.13 103.41 455.99 48.1 438.56 42.79 391.58 95.83"/><polygon class="cls-8" points="427.95 143.56 487.81 108.71 495.38 133.71 430.22 149.63 427.95 143.56"/><polygon class="cls-8" points="428.71 192.81 429.47 198.12 499.93 218.57 493.11 195.84 428.71 192.81"/></svg>