<svg id="objects" xmlns="http://www.w3.org/2000/svg" viewBox="0 0 500 500"><defs><style>.cls-1{fill:#583483;}.cls-2{fill:#e4e4e4;}.cls-3{fill:#fff;}.cls-4{fill:#785f9e;}.cls-5{fill:#e6e6e6;}.cls-6{fill:#a399ba;}.cls-7{fill:#5e5e5c;}.cls-8{fill:#f2eeed;}.cls-9{fill:#696a6c;}.cls-10{fill:#edb48e;}</style></defs><title>154974-OV00CN-661</title><path class="cls-1" d="M409.32,424l-177-20.77A23.67,23.67,0,0,1,211.58,377l29.3-249.74a23.67,23.67,0,0,1,26.26-20.75l177,20.77a23.67,23.67,0,0,1,20.75,26.26l-29.3,249.74A23.67,23.67,0,0,1,409.32,424Z"/><rect class="cls-2" x="204.07" y="165.21" width="268.33" height="200.25" transform="translate(43.58 578.35) rotate(-84.84)"/><rect class="cls-3" x="205.81" y="166.45" width="264.85" height="197.65" transform="translate(30.57 565.48) rotate(-82.4)"/><rect class="cls-4" x="261.42" y="145.21" width="182.16" height="13.49" transform="translate(20.11 -40.04) rotate(6.69)"/><rect class="cls-5" x="255.21" y="159.42" width="85.3" height="85.3" transform="translate(25.58 -33.33) rotate(6.69)"/><rect class="cls-5" x="350.46" y="170.6" width="85.3" height="85.3" transform="translate(27.53 -44.36) rotate(6.69)"/><rect class="cls-5" x="244.68" y="248.93" width="85.3" height="85.78" transform="translate(35.97 -31.5) rotate(6.69)"/><rect class="cls-5" x="343.46" y="260.31" width="85.3" height="25.06" transform="translate(34.43 -43.14) rotate(6.69)"/><rect class="cls-5" x="339.98" y="289.98" width="85.3" height="25.06" transform="translate(37.86 -42.53) rotate(6.69)"/><rect class="cls-5" x="236.49" y="345.13" width="181.2" height="38.55" transform="translate(44.7 -35.64) rotate(6.69)"/><rect class="cls-5" x="336.39" y="320.62" width="85.3" height="25.06" transform="translate(41.41 -41.9) rotate(6.69)"/><path class="cls-6" d="M330,200.92A30.6,30.6,0,0,0,303.26,167l-3.56,30.31Z"/><path class="cls-1" d="M296.67,202.5l-3.28,27.92A30.6,30.6,0,0,0,326.88,206Z"/><path class="cls-1" d="M294.43,199.65L298,169.44a30.6,30.6,0,0,0-31.47,26.93Z"/><path class="cls-1" d="M266.31,198.93A30.6,30.6,0,0,0,290.86,230l3.26-27.81Z"/><rect class="cls-4" x="355.87" y="205.76" width="14.94" height="38.55" transform="translate(28.7 -40.81) rotate(6.69)"/><rect class="cls-4" x="374.39" y="202.13" width="14.94" height="44.34" transform="translate(28.74 -42.97) rotate(6.69)"/><rect class="cls-4" x="392.92" y="198.51" width="14.94" height="50.12" transform="translate(28.78 -45.14) rotate(6.69)"/><rect class="cls-4" x="413.02" y="192.64" width="14.94" height="58.31" transform="translate(28.71 -47.49) rotate(6.69)"/><polygon class="cls-1" points="406.06 370.58 406 370.7 405.96 370.45 396.33 380.39 390.01 359.18 389.81 358.73 378.7 378.84 371.4 366.94 371.3 366.81 361.68 376.75 355.15 355.09 344.26 374.81 333.64 357.99 318.24 372.18 306.58 362.34 306.4 362.41 292.44 369.22 281.26 351.52 280.85 351.79 265.86 365.7 254.2 355.87 254.07 356.03 254.02 355.94 238.91 363.31 239.63 364.87 253.94 357.89 264.96 367.2 265.8 368.12 265.92 368.01 265.98 368.05 266.31 367.63 280.75 353.92 291.75 371.34 291.95 371.21 292.01 371.35 306.31 364.37 317.34 373.67 318.18 374.6 318.3 374.48 318.36 374.53 318.69 374.11 333.13 360.39 343.31 376.51 343.31 376.53 343.99 378.06 344.13 377.81 345.08 376.1 354.93 358.28 361.07 379.73 361.12 379.68 361.17 379.86 371.01 369.47 378.48 381.65 378.56 381.5 378.65 381.7 389.58 361.92 395.73 383.37 395.77 383.32 395.82 383.5 405.67 373.11 413.14 385.29 413.95 383.46 406.06 370.58"/><path class="cls-3" d="M297.18,277.62l12.54-9.9a33.55,33.55,0,0,0-41.59-4.32q4.95,6.22,9.89,12.45A17.84,17.84,0,0,1,297.18,277.62Z"/><path class="cls-6" d="M311.49,269.59l-12.38,9.78a17.83,17.83,0,0,1,.63,23.94l9.87,12.46A33.57,33.57,0,0,0,311.49,269.59Z"/><path class="cls-1" d="M297.91,305.14a17.83,17.83,0,0,1-29.53-13l-15.71-1.84a33.56,33.56,0,0,0,55,27.22Z"/><path class="cls-4" d="M268.51,289.53a17.78,17.78,0,0,1,7.3-12.33Q270.93,271,266,264.87a33.47,33.47,0,0,0-13.14,22.82Z"/><rect class="cls-1" x="347.28" y="260.08" width="11.25" height="11.25" transform="translate(33.37 -39.31) rotate(6.69)"/><rect class="cls-1" x="344.02" y="287.84" width="11.25" height="11.25" transform="translate(36.58 -38.75) rotate(6.69)"/><rect class="cls-1" x="340.24" y="320.05" width="11.25" height="11.25" transform="translate(40.31 -38.09) rotate(6.69)"/><rect class="cls-7" x="361.32" y="267.01" width="65.96" height="1.77" transform="translate(33.91 -44.13) rotate(6.69)"/><rect class="cls-7" x="360.64" y="272.84" width="65.96" height="1.77" transform="translate(34.58 -44.01) rotate(6.69)"/><rect class="cls-7" x="359.93" y="278.88" width="65.96" height="1.77" transform="translate(35.28 -43.88) rotate(6.69)"/><rect class="cls-7" x="358.12" y="294.29" width="65.96" height="1.77" transform="translate(37.06 -43.57) rotate(6.69)"/><rect class="cls-7" x="357.44" y="300.12" width="65.96" height="1.77" transform="translate(37.74 -43.45) rotate(6.69)"/><rect class="cls-7" x="356.73" y="306.16" width="65.96" height="1.77" transform="translate(38.44 -43.32) rotate(6.69)"/><rect class="cls-7" x="354.53" y="324.91" width="65.96" height="1.77" transform="translate(40.61 -42.94) rotate(6.69)"/><rect class="cls-7" x="353.85" y="330.73" width="65.96" height="1.77" transform="translate(41.28 -42.82) rotate(6.69)"/><rect class="cls-7" x="353.14" y="336.77" width="65.96" height="1.77" transform="translate(41.98 -42.7) rotate(6.69)"/><path class="cls-4" d="M402.42,129.71l3-25.65-7.84-.92a47.55,47.55,0,0,0-80.23-9.41l-7.17-.84-3,25.65Z"/><rect class="cls-6" x="352.1" y="73.14" width="6.11" height="95.9" transform="translate(193.5 459.71) rotate(-83.31)"/><rect class="cls-1" x="48.66" y="218.63" width="183.12" height="173.92" rx="20.5" ry="20.5" transform="translate(-61.03 36.25) rotate(-12.12)"/><path class="cls-8" d="M226.62,374.83l-139,29.84a20.5,20.5,0,0,1-24.35-15.74L35.41,259a20.5,20.5,0,0,1,15.74-24.35l139-29.84a20.5,20.5,0,0,1,24.35,15.74l27.9,130A20.5,20.5,0,0,1,226.62,374.83Z"/><path class="cls-1" d="M59.39,225.55H192a17.67,17.67,0,0,1,17.67,17.67v17.64a0,0,0,0,1,0,0H41.72a0,0,0,0,1,0,0V243.22A17.67,17.67,0,0,1,59.39,225.55Z" transform="translate(-48.26 31.8) rotate(-12.12)"/><rect class="cls-6" x="47.41" y="234.9" width="157.39" height="20.66" transform="translate(-48.67 31.94) rotate(-12.12)"/><rect class="cls-3" x="50.53" y="282.93" width="18.46" height="18.46" transform="translate(-60 19.05) rotate(-12.12)"/><rect class="cls-1" x="74.71" y="277.74" width="18.46" height="18.46" transform="translate(-58.37 24.02) rotate(-12.12)"/><rect class="cls-1" x="98.52" y="272.62" width="18.46" height="18.46" transform="translate(-56.77 28.9) rotate(-12.12)"/><rect class="cls-1" x="122.33" y="267.51" width="18.46" height="18.46" transform="translate(-55.16 33.78) rotate(-12.12)"/><rect class="cls-1" x="147.52" y="262.1" width="18.46" height="18.46" transform="translate(-53.47 38.95) rotate(-12.12)"/><rect class="cls-1" x="171.46" y="256.96" width="18.46" height="18.46" transform="translate(-51.85 43.86) rotate(-12.12)"/><rect class="cls-1" x="196.65" y="251.55" width="18.46" height="18.46" transform="translate(-50.16 49.03) rotate(-12.12)"/><rect class="cls-9" x="52.35" y="300.14" width="18.46" height="1.05" transform="translate(-61.74 19.63) rotate(-12.12)"/><rect class="cls-9" x="76.54" y="294.95" width="18.46" height="1.05" transform="translate(-60.11 24.59) rotate(-12.12)"/><rect class="cls-9" x="100.35" y="289.83" width="18.46" height="1.05" transform="translate(-58.52 29.48) rotate(-12.12)"/><rect class="cls-9" x="124.16" y="284.72" width="18.46" height="1.05" transform="translate(-56.91 34.36) rotate(-12.12)"/><rect class="cls-9" x="149.35" y="279.31" width="18.46" height="1.05" transform="translate(-55.21 39.52) rotate(-12.12)"/><rect class="cls-9" x="173.29" y="274.17" width="18.46" height="1.05" transform="translate(-53.6 44.43) rotate(-12.12)"/><rect class="cls-9" x="198.48" y="268.76" width="18.46" height="1.05" transform="translate(-51.91 49.61) rotate(-12.12)"/><rect class="cls-3" x="69.96" y="373.43" width="18.46" height="18.46" transform="translate(-78.57 25.15) rotate(-12.12)"/><rect class="cls-4" x="94.15" y="368.24" width="18.46" height="18.46" transform="translate(-76.94 30.11) rotate(-12.12)"/><rect class="cls-4" x="117.96" y="363.13" width="18.46" height="18.46" transform="translate(-75.33 35) rotate(-12.12)"/><rect class="cls-4" x="141.77" y="358.02" width="18.46" height="18.46" transform="translate(-73.73 39.88) rotate(-12.12)"/><rect class="cls-4" x="166.96" y="352.61" width="18.46" height="18.46" transform="translate(-72.03 45.05) rotate(-12.12)"/><rect class="cls-1" x="188.64" y="326.25" width="18.46" height="39.91" transform="translate(-68.27 49.25) rotate(-12.12)"/><rect class="cls-1" x="216.08" y="342.06" width="18.46" height="18.46" transform="translate(-68.72 55.13) rotate(-12.12)"/><rect class="cls-9" x="71.79" y="390.64" width="18.46" height="1.05" transform="translate(-80.32 25.73) rotate(-12.12)"/><rect class="cls-9" x="95.97" y="385.45" width="18.46" height="1.05" transform="translate(-78.68 30.68) rotate(-12.12)"/><rect class="cls-9" x="119.78" y="380.34" width="18.46" height="1.05" transform="translate(-77.08 35.57) rotate(-12.12)"/><rect class="cls-9" x="143.59" y="375.23" width="18.46" height="1.05" transform="translate(-75.47 40.45) rotate(-12.12)"/><rect class="cls-9" x="168.78" y="369.82" width="18.46" height="1.05" transform="translate(-73.77 45.62) rotate(-12.12)"/><rect class="cls-9" x="192.72" y="364.68" width="18.46" height="1.05" transform="translate(-72.16 50.52) rotate(-12.12)"/><rect class="cls-9" x="217.91" y="359.27" width="18.46" height="1.05" transform="translate(-70.47 55.7) rotate(-12.12)"/><rect class="cls-3" x="55.56" y="306.35" width="18.46" height="18.46" transform="translate(-64.81 20.63) rotate(-12.12)"/><rect class="cls-1" x="79.74" y="301.16" width="18.46" height="18.46" transform="translate(-63.18 25.59) rotate(-12.12)"/><rect class="cls-4" x="103.55" y="296.05" width="18.46" height="18.46" transform="translate(-61.57 30.48) rotate(-12.12)"/><rect class="cls-4" x="127.36" y="290.93" width="18.46" height="18.46" transform="translate(-59.97 35.36) rotate(-12.12)"/><rect class="cls-4" x="152.55" y="285.53" width="18.46" height="18.46" transform="translate(-58.27 40.53) rotate(-12.12)"/><rect class="cls-1" x="178.92" y="280.13" width="18.46" height="41.65" transform="translate(-58.98 46.2) rotate(-12.12)"/><rect class="cls-1" x="201.68" y="274.98" width="18.46" height="18.46" transform="translate(-54.96 50.61) rotate(-12.12)"/><rect class="cls-9" x="57.38" y="323.56" width="18.46" height="1.05" transform="translate(-66.54 21.2) rotate(-12.12)"/><rect class="cls-9" x="81.57" y="318.37" width="18.46" height="1.05" transform="translate(-64.92 26.17) rotate(-12.12)"/><rect class="cls-9" x="105.38" y="313.26" width="18.46" height="1.05" transform="translate(-63.32 31.05) rotate(-12.12)"/><rect class="cls-9" x="129.19" y="308.14" width="18.46" height="1.05" transform="translate(-61.71 35.93) rotate(-12.12)"/><rect class="cls-9" x="154.38" y="302.74" width="18.46" height="1.05" transform="translate(-60.02 41.11) rotate(-12.12)"/><rect class="cls-9" x="183.17" y="320.14" width="18.46" height="1.19" transform="translate(-63.04 47.53) rotate(-12.12)"/><rect class="cls-9" x="203.51" y="292.19" width="18.46" height="1.05" transform="translate(-56.71 51.18) rotate(-12.12)"/><rect class="cls-1" x="60.43" y="329.03" width="18.46" height="18.46" transform="translate(-69.46 22.16) rotate(-12.12)"/><rect class="cls-1" x="84.61" y="323.84" width="18.46" height="18.46" transform="translate(-67.83 27.12) rotate(-12.12)"/><rect class="cls-4" x="108.42" y="318.73" width="18.46" height="18.46" transform="translate(-66.22 32.01) rotate(-12.12)"/><rect class="cls-4" x="132.23" y="313.61" width="18.46" height="18.46" transform="translate(-64.62 36.89) rotate(-12.12)"/><rect class="cls-4" x="157.42" y="308.21" width="18.46" height="18.46" transform="translate(-62.93 42.06) rotate(-12.12)"/><rect class="cls-1" x="206.55" y="297.66" width="18.46" height="18.46" transform="translate(-59.61 52.13) rotate(-12.12)"/><rect class="cls-9" x="62.25" y="346.24" width="18.46" height="1.05" transform="translate(-71.2 22.73) rotate(-12.12)"/><rect class="cls-9" x="86.44" y="341.05" width="18.46" height="1.05" transform="translate(-69.57 27.69) rotate(-12.12)"/><rect class="cls-9" x="110.25" y="335.94" width="18.46" height="1.05" transform="translate(-67.97 32.58) rotate(-12.12)"/><rect class="cls-9" x="134.06" y="330.82" width="18.46" height="1.05" transform="translate(-66.36 37.46) rotate(-12.12)"/><rect class="cls-9" x="159.25" y="325.42" width="18.46" height="1.05" transform="translate(-64.67 42.63) rotate(-12.12)"/><rect class="cls-9" x="208.38" y="314.87" width="18.46" height="1.05" transform="translate(-61.36 52.71) rotate(-12.12)"/><rect class="cls-1" x="65.46" y="352.46" width="18.46" height="18.46" transform="translate(-74.26 23.74) rotate(-12.12)"/><rect class="cls-4" x="113.45" y="342.15" width="18.46" height="18.46" transform="translate(-71.03 33.58) rotate(-12.12)"/><rect class="cls-4" x="137.26" y="337.04" width="18.46" height="18.46" transform="translate(-69.43 38.47) rotate(-12.12)"/><rect class="cls-4" x="162.45" y="331.63" width="18.46" height="18.46" transform="translate(-67.73 43.64) rotate(-12.12)"/><rect class="cls-1" x="211.58" y="321.08" width="18.46" height="18.46" transform="translate(-64.42 53.71) rotate(-12.12)"/><rect class="cls-9" x="67.28" y="369.67" width="18.46" height="1.05" transform="translate(-76.01 24.31) rotate(-12.12)"/><rect class="cls-9" x="115.28" y="359.36" width="18.46" height="1.05" transform="translate(-72.77 34.16) rotate(-12.12)"/><rect class="cls-9" x="139.09" y="354.25" width="18.46" height="1.05" transform="translate(-71.17 39.04) rotate(-12.12)"/><rect class="cls-9" x="164.28" y="348.84" width="18.46" height="1.05" transform="translate(-69.47 44.21) rotate(-12.12)"/><rect class="cls-9" x="213.4" y="338.29" width="18.46" height="1.05" transform="translate(-66.17 54.29) rotate(-12.12)"/><path class="cls-10" d="M214.54,296.75a2.09,2.09,0,0,0-.3-1.76C214.36,295.57,214.46,296.16,214.54,296.75Z"/><path class="cls-10" d="M368.94,313.45l8.78,0.37c-0.72-.59-1.38-1.09-2-1.56A29,29,0,0,1,368.94,313.45Z"/></svg>