<svg xmlns="http://www.w3.org/2000/svg" viewBox="0 0 425.2 425.2"><defs><style>.cls-1{isolation:isolate;}.cls-2{fill:#e5e6e9;}.cls-3{fill:#a399ba;}.cls-4{fill:#593584;}.cls-5{fill:#fff;}.cls-6{fill:#d2d4d8;mix-blend-mode:multiply;}.cls-7{fill:#79609f;}</style></defs><title>347 [Converted]</title><g class="cls-1"><g id="Capa_1" data-name="Capa 1"><path class="cls-2" d="M114.36,97.21a5,5,0,0,1,3.61-6l96.37-23.78a5,5,0,0,1,6,3.62h0a5,5,0,0,1-3.61,6l-96.37,23.78a5,5,0,0,1-6-3.62h0Z"/><path class="cls-3" d="M220.18,70.63a4.92,4.92,0,0,0-5.83-3.2L118,91.22a4.94,4.94,0,0,0-3.68,5.55Z"/><path class="cls-2" d="M112,87.7a5,5,0,0,1,3.61-6L212,57.93a5,5,0,0,1,6,3.62h0a5,5,0,0,1-3.61,6L118,91.32a4.94,4.94,0,0,1-6-3.62h0Z"/><path class="cls-3" d="M217.84,61.14A4.93,4.93,0,0,0,212,57.93L115.63,81.71a5,5,0,0,0-3.68,5.56Z"/><path class="cls-2" d="M109.69,78.27a5,5,0,0,1,3.61-6L209.67,48.5a5,5,0,0,1,6,3.61h0a5,5,0,0,1-3.62,6L115.68,81.89a5,5,0,0,1-6-3.62h0Z"/><path class="cls-3" d="M215.5,51.7a4.9,4.9,0,0,0-5.83-3.2L113.3,72.28a4.93,4.93,0,0,0-3.68,5.55Z"/><path class="cls-2" d="M107.39,68.94a5,5,0,0,1,3.61-6l96.36-23.78a5,5,0,0,1,6,3.62h0a4.94,4.94,0,0,1-3.62,6L113.37,72.56a5,5,0,0,1-6-3.62h0Z"/><path class="cls-3" d="M213.2,42.37a4.92,4.92,0,0,0-5.84-3.21L111,62.94a4.92,4.92,0,0,0-3.67,5.55Z"/><path class="cls-2" d="M160.9,0a5,5,0,0,0-4.51,5.44L161.17,56a5,5,0,0,0,5.44,4.5h0a5,5,0,0,0,4.49-5.44L166.34,4.52A5,5,0,0,0,160.9,0h0Z"/><path class="cls-3" d="M166.16,60.49a5,5,0,0,1-5-4.49L156.39,5.47A5,5,0,0,1,160.46.1Z"/><path class="cls-2" d="M178.69,3.39a5,5,0,0,0-5.93,3.83l-10.7,49.62a5,5,0,0,0,3.83,5.93h0a5,5,0,0,0,5.93-3.83l10.7-49.62a5,5,0,0,0-3.83-5.93h0Z"/><path class="cls-3" d="M165.46,62.63a5,5,0,0,1-3.4-5.8l10.7-49.62a5,5,0,0,1,5.48-3.88Z"/><path class="cls-2" d="M190.37,5.68A5,5,0,0,0,183.71,8l-22,45.73A5,5,0,0,0,164,60.41h0a5,5,0,0,0,6.67-2.33l22-45.73a5,5,0,0,0-2.34-6.67h0Z"/><path class="cls-3" d="M163.64,60.17a5,5,0,0,1-2-6.44L183.71,8A5,5,0,0,1,190,5.53Z"/><path class="cls-2" d="M200.09,12.74a5,5,0,0,0-7,1.17L163.65,55.24a5,5,0,0,0,1.17,7h0a5,5,0,0,0,7-1.17l29.47-41.33a5,5,0,0,0-1.16-7h0Z"/><path class="cls-3" d="M164.49,61.9a5,5,0,0,1-.84-6.67l29.47-41.33a5,5,0,0,1,6.58-1.39Z"/><path class="cls-2" d="M211.49,24.94a5,5,0,0,0-7-1L163.79,54.23a5,5,0,0,0-1,7h0a5,5,0,0,0,7,1l40.72-30.31a5,5,0,0,0,1-7h0Z"/><path class="cls-3" d="M162.54,60.84a5,5,0,0,1,1.25-6.61L204.5,23.92a5,5,0,0,1,6.68.69Z"/><path class="cls-2" d="M134,7.07a5,5,0,0,1,6.52,2.72l19.27,46.95a5,5,0,0,1-2.72,6.52h0a5,5,0,0,1-6.52-2.72l-19.28-47A5,5,0,0,1,134,7.07h0Z"/><path class="cls-3" d="M157.49,63.05a5,5,0,0,0,2.33-6.31L140.54,9.79a5,5,0,0,0-6.1-2.84Z"/><path class="cls-2" d="M119.83,18.32a5,5,0,0,1,7,.63L159.42,57.9a5,5,0,0,1-.63,7h0a5,5,0,0,1-7-.63L119.21,25.37a5,5,0,0,1,.62-7h0Z"/><path class="cls-3" d="M159.11,64.61a5,5,0,0,0,.31-6.71L126.88,19a5,5,0,0,0-6.67-.88Z"/><path class="cls-2" d="M110.55,25.79a5,5,0,0,1,7-1L158.31,55a5,5,0,0,1,1,7h0a5,5,0,0,1-7,1L111.59,32.78a5,5,0,0,1-1-7h0Z"/><path class="cls-3" d="M159.57,61.59a5,5,0,0,0-1.26-6.6L117.54,24.76a5,5,0,0,0-6.68.7Z"/><path class="cls-2" d="M105.24,36.56A5,5,0,0,1,112,34.35l45.31,22.88a5,5,0,0,1,2.21,6.7h0a5,5,0,0,1-6.71,2.21l-45.3-22.88a5,5,0,0,1-2.22-6.71h0Z"/><path class="cls-3" d="M159.63,63.52a5,5,0,0,0-2.36-6.29L112,34.35a5,5,0,0,0-6.46,1.83Z"/><path class="cls-2" d="M100.82,52.66a5,5,0,0,1,5.71-4.15l50.14,7.9a5,5,0,0,1,4.16,5.7h0a5,5,0,0,1-5.71,4.16L105,58.37a5,5,0,0,1-4.16-5.71h0Z"/><path class="cls-3" d="M160.85,61.67a5,5,0,0,0-4.18-5.26l-50.14-7.9a5,5,0,0,0-5.6,3.72Z"/><path class="cls-2" d="M147.41,3.39A5,5,0,0,1,153.47,7l12.15,49.28A5,5,0,0,1,162,62.37h0a5,5,0,0,1-6-3.66L143.77,9.43a5,5,0,0,1,3.64-6h0Z"/><path class="cls-3" d="M162.39,62.21a5,5,0,0,0,3.23-5.9L153.47,7a5,5,0,0,0-5.61-3.72Z"/><path class="cls-3" d="M202.9,266.9a9.26,9.26,0,0,0,18-4.43l-5.61-22.76a0.2,0.2,0,0,1,0-.06l-36-145.78-3.36.83-13.1-53.08-11.24,2.77,13.09,53.08-3.35.82,35.87,145.35c0,0.17.06,0.34,0.09,0.5Zm13.52-4.78a5,5,0,0,1-9.73,2.4l-3-12.3a5,5,0,0,1,9.73-2.4Z"/><path class="cls-4" d="M213,273.88a4.14,4.14,0,0,1-.26-0.49c-0.68-1.5-1.39-3.24-2.1-5.16a5,5,0,0,1-3.91-3.7l-3-12.3a5,5,0,0,1,.65-3.89c-6.2-21.92-12.52-49.48-16.11-62.13-5.33-18.72-10.33-37.28-14.82-56.25a266.78,266.78,0,0,1-5.67-29.17c-1-7.91-1.46-15.58-3.26-23.36-2.91-12.52-4.68-23.94-2.25-35.66l-10.62,2.62,13.09,53.08-3.35.82,35.87,145.35L203,267.4A9.24,9.24,0,0,0,213,273.88Z"/><path class="cls-5" d="M163.13,81.46A3.18,3.18,0,1,1,167,83.79,3.19,3.19,0,0,1,163.13,81.46Z"/><path class="cls-6" d="M166.92,83.8a2.62,2.62,0,0,1,0-5.09,2.65,2.65,0,0,1,1.9.26A3.17,3.17,0,1,0,166.92,83.8Z"/><path class="cls-5" d="M160.3,70a3.18,3.18,0,1,1,3.86,2.32A3.2,3.2,0,0,1,160.3,70Z"/><path class="cls-6" d="M164.1,72.36A2.63,2.63,0,1,1,166,67.52,3.18,3.18,0,1,0,164.1,72.36Z"/><path class="cls-5" d="M157.49,58.59a3.18,3.18,0,1,1,3.85,2.33A3.18,3.18,0,0,1,157.49,58.59Z"/><path class="cls-6" d="M161.29,60.92a2.62,2.62,0,1,1,1.94-4.83A3.17,3.17,0,1,0,161.29,60.92Z"/><path class="cls-3" d="M377.81,161.63s-10.45,173.45-17.19,240.25c-1.29,12.81-10.44,23.32-23.32,23.32H183.09c-12.89,0-22.19-10.49-23.32-23.32-5.94-67.23-17.18-240.25-17.18-240.25H377.81Z"/><path class="cls-7" d="M204.15,161.63c-25.1,24.72-40.86,58.92-40.86,96.25,0,73.89,61.66,135.55,135.54,135.55a133.15,133.15,0,0,0,64.09-16.51c-0.8,9.32-1.56,17.76-2.29,25-1.29,12.81-10.44,23.32-23.32,23.32H183.09c-12.89,0-22.19-10.49-23.32-23.32-5.94-67.23-17.18-240.25-17.18-240.25h61.57Z"/><rect class="cls-3" x="380.25" y="150.23" width="24.56" height="15.93" rx="4.12" ry="4.12"/><rect class="cls-3" x="115.58" y="150.23" width="24.56" height="15.93" rx="4.12" ry="4.12"/><path class="cls-4" d="M260.2,367.77c77.76,0,141-63.26,141-141V158.34a3,3,0,1,0-6,0v68.41c0,74.44-60.57,135-135,135s-135-60.56-135-135V158.34a3,3,0,1,0-6,0v68.41C119.17,304.51,182.43,367.77,260.2,367.77Z"/><path class="cls-3" d="M131.87,168.51a7.77,7.77,0,0,0,7.77,7.77H380.83a7.78,7.78,0,0,0,7.78-7.77V146.9a7.77,7.77,0,0,0-7.78-7.77H139.64a7.77,7.77,0,0,0-7.77,7.77v21.61Z"/><path class="cls-7" d="M139.64,139.13h18.91c30.13,34.15,80.43,30,123.21,28.78A610.92,610.92,0,0,0,388.6,155.23v13.28a7.78,7.78,0,0,1-7.78,7.77H139.64a7.77,7.77,0,0,1-7.77-7.77V146.9A7.77,7.77,0,0,1,139.64,139.13Z"/><path class="cls-4" d="M269.36,232.14s12.85-18.15,15.41-24.56c3.51-8.76,6.8-30.62,14.39-34.88,0,0-.29-16.62-1-24.48a36.19,36.19,0,0,0-2.26-9.25c-1.79-2.94-4.08-3.24-4.08-3.24s28.83-2.41,45.9-1.9c13.19,0.38,13,4.36,12.91,8-0.23,8.51-1.73,30.72-1.73,30.72a8.86,8.86,0,0,1,4.12,6.25c3.11,13.83,9,49.05,9.55,52.37a6.41,6.41,0,0,1,.37,1.32l5.56,30.21A6.83,6.83,0,0,1,355,265.17l-5.48-29.83h0s0-.09,0-0.21l0-.17a0.25,0.25,0,0,0,0-.07c-0.15-.78-0.62-2.3-2.11-2.12-2,.25-1.6,3.33-1.6,3.33h0l3.45,48.7a6.83,6.83,0,0,1-13.62,1L332,235.83a1.56,1.56,0,0,0-1.51-1,1.36,1.36,0,0,0-1.29,1.26l-3,56a6.83,6.83,0,0,1-13.64-.59l3-55.56a2,2,0,0,0-1.69-1.63,2.32,2.32,0,0,0-1.6,1.6h0l-10.7,50.31a6.83,6.83,0,0,1-13.36-2.84L299,232.62a4.13,4.13,0,0,1,.19-0.57c0.35-1.35.87-4-.28-5-2-1.6-4.51,1-4.51,1V228l-12.67,13.64c-2.88,3.1-8.64,4.85-12.66,1.54C266.16,240.78,266.48,235.24,269.36,232.14Z"/><path class="cls-7" d="M286.93,139c0.4-.66,2.15-3.29,4.53-3.29s4.26,2.73,4.51,3.29h-9Z"/><path class="cls-4" d="M204.5,232.14s12.85-18.15,15.41-24.56c3.51-8.76,6.8-30.62,14.38-34.88,0,0-.29-16.62-1-24.48A36.93,36.93,0,0,0,231,139c-1.79-2.94-4.09-3.24-4.09-3.24s28.83-2.41,45.9-1.9c13.19,0.38,13,4.36,12.91,8C285.5,150.39,284,172.6,284,172.6a8.87,8.87,0,0,1,4.12,6.25c3.11,13.83,9,49.05,9.55,52.37a6.65,6.65,0,0,1,.38,1.32l5.55,30.21a6.83,6.83,0,0,1-13.44,2.42l-5.48-29.83h0a1.54,1.54,0,0,0,0-.21l0-.17s0,0,0-.07c-0.15-.78-0.62-2.3-2.12-2.12-2,.25-1.59,3.33-1.59,3.33h0l3.44,48.7a6.83,6.83,0,0,1-13.63,1l-3.53-49.94a1.56,1.56,0,0,0-1.51-1,1.35,1.35,0,0,0-1.28,1.26l-3,56a6.83,6.83,0,0,1-13.64-.59l3-55.56a2,2,0,0,0-1.68-1.63,2.31,2.31,0,0,0-1.6,1.6h-0.05l-10.7,50.31a6.82,6.82,0,1,1-13.35-2.84l10.79-50.75c0-.2.12-0.38,0.18-0.57,0.35-1.35.88-4-.28-5-2-1.6-4.51,1-4.51,1V228l-12.67,13.64c-2.89,3.1-8.65,4.85-12.67,1.54C201.3,240.78,201.61,235.24,204.5,232.14Z"/><path class="cls-7" d="M222.06,139c0.4-.66,2.14-3.29,4.52-3.29s4.26,2.73,4.51,3.29h-9Z"/><polygon class="cls-4" points="59.59 236.18 97.83 236.18 91.64 187.09 67.34 187.09 59.59 236.18"/><path class="cls-7" d="M20.45,309.3V414.86c0,7.95,8.79,10.34,15.38,10.34H107.4c7.88,0,11.37-7.1,11.37-10.85,0-26.87,5.17-178.16-21.12-178.16H56.48C32,236.18,20.45,258.67,20.45,309.3Zm14.34-18.79S44.54,277.26,45,262c0.39-13.81,7.75-16.62,15.6-15.12,12.7,2.45,17.68,47.56-10,64.09-4.68,2.8-17.69,4.83-21.69-2.63C24.36,299.81,34.79,290.51,34.79,290.51Z"/><path class="cls-3" d="M40.48,326.84c22.09,0,41.61-29.56,38.11-51.39-1-6.46-1.87-9.82,5.3-9.82h8.34c20.25,0,15.3,116.55,15.3,137.24a8.83,8.83,0,0,1-8.76,8.36H43.64c-5.08,0-11.85-1.84-11.85-8V335.15S31.17,326.84,40.48,326.84Z"/><path class="cls-7" d="M80.21,359c10-22.55,13.89-53.69,5.81-77.51a46.6,46.6,0,0,0-7.57-14c0.74-1.23,2.33-1.86,5.43-1.86h8.34c20.25,0,15.3,116.55,15.3,137.24a8.83,8.83,0,0,1-8.76,8.36H43.64c-5.08,0-11.85-1.84-11.85-8v-13.1C52,387.56,71.27,379.29,80.21,359Z"/><path class="cls-4" d="M68.45,392.16c12.26-7,22.68-20.15,25.48-34.25,4.84-24.48,4.45-52.4-2.23-76.43a39.71,39.71,0,0,0-8.62-15.82l0.81,0h8.34c20.25,0,15.3,116.55,15.3,137.24a8.83,8.83,0,0,1-8.76,8.36H43.64c-5.08,0-11.85-1.84-11.85-8V398.2C44.35,399.85,57,398.71,68.45,392.16Z"/></g></g></svg>