<svg id="OBJECTS" xmlns="http://www.w3.org/2000/svg" viewBox="0 0 500 500"><defs><style>.cls-1{fill:#583482;}.cls-2{fill:#a298b9;}.cls-3{fill:#78609d;}.cls-4{fill:#fff;}</style></defs><title>405657-PDMWXC-478</title><rect class="cls-1" x="434.46" y="131.73" width="3.8" height="249.93"/><path class="cls-1" d="M454.44,388.6H418.28c0-6.2,8.09-11.23,18.08-11.23S454.44,382.4,454.44,388.6Z"/><rect class="cls-1" x="408.68" y="388.6" width="57.32" height="8.11" rx="2.29" ry="2.29"/><path class="cls-2" d="M500,149.22s-9,7.2-65.54,7.2-65.54-7.2-65.54-7.2L403.51,80h61.9Z"/><path class="cls-3" d="M465.41,80h-0.76c-3.23,46.3-44.64,71.72-88.85,55.42l-6.88,13.76s9,7.2,65.54,7.2,65.54-7.2,65.54-7.2Z"/><polygon class="cls-2" points="334.6 386.02 337.17 397.74 332.38 397.74 327.43 386.02 334.6 386.02"/><polygon class="cls-2" points="64.41 386.02 61.84 397.74 66.63 397.74 71.58 386.02 64.41 386.02"/><polygon class="cls-3" points="57.19 386.53 341.81 386.53 341.81 372.9 59.83 372.9 57.19 386.53"/><path class="cls-1" d="M28,365.89c1,3.55,4.41,9.63,11.26,9.63H357.12c8,0,12.4-5.8,12.4-9.63H28Z"/><polygon class="cls-2" points="28.05 365.89 369.51 365.89 356.03 347.8 43.18 345.59 28.05 365.89"/><path class="cls-2" d="M375.74,254.2c2.43-23.28-14.21-38.54-38.57-38.54H68.5c-31.87,0-43.1,18.83-44.91,38.54s-7.85,42,33.61,48,273.58,7.46,294.81,0S374,270.5,375.74,254.2Z"/><path class="cls-3" d="M39.95,264.59c1.33-23.42,8.32-36.94,27.43-36.94h264.8c15.85,0,33.57,9.54,28,36.94s-5.48,30.2-23.49,34.39-263.94,0-275.32,0-19.93-3.73-21.4-11.19S39.95,264.59,39.95,264.59Z"/><path class="cls-1" d="M1,266.81c1.15-7.25,6.27-10.38,15.52-11.94,6.39-1.08,19.5-1.19,24.67,2.39s7.56,25.47,11.54,41c-4.38,8-8.36,45.76-8.36,45.76L28,365.89S-6.18,325.7,1,266.81Z"/><path class="cls-1" d="M396.57,266.81c-1.15-7.25-6.27-10.38-15.52-11.94-6.39-1.08-19.5-1.19-24.67,2.39s-7.56,25.47-11.54,41c4.38,8,8.36,45.76,8.36,45.76l16.32,21.89S403.74,325.7,396.57,266.81Z"/><path class="cls-1" d="M18,254.65c-0.53.07-1,.14-1.5,0.22C7.26,256.43,2.14,259.55,1,266.8-6.18,325.7,28,365.89,28,365.89L39.29,350.8C27.73,337.4,13.33,287.8,18,254.65Z"/><path class="cls-1" d="M396.57,266.8c-1.14-7.16-6.17-10.3-15.21-11.87,2.76,29.56-11.41,82.16-23.11,95.86l11.25,15.1S403.74,325.7,396.57,266.8Z"/><path class="cls-2" d="M17.75,264.36c4.72-.5,18.35-4.16,24.61-5.89a5.5,5.5,0,0,0-1.17-1.22c-5.17-3.58-18.28-3.46-24.67-2.39-7.9,1.33-12.76,3.83-14.73,9A75.75,75.75,0,0,0,17.75,264.36Z"/><path class="cls-2" d="M395.79,263.91c-2-5.21-6.84-7.71-14.73-9-6.39-1.08-19.5-1.19-24.67,2.39a5.51,5.51,0,0,0-1.17,1.22c6.25,1.72,19.89,5.39,24.61,5.89A75.75,75.75,0,0,0,395.79,263.91Z"/><polygon class="cls-1" points="44.03 375.52 34.29 419.96 43.08 419.96 61.84 375.52 44.03 375.52"/><polygon class="cls-1" points="354.98 375.52 364.71 419.96 355.93 419.96 337.17 375.52 354.98 375.52"/><path class="cls-2" d="M41.06,305.23c-3.05,2.77-5.21,4.14-6.44,9.07S35.85,334,38.31,341s7.38,7.79,14.36,7.79H354.13c7,0,9.84-8.61,10.25-16.82s0.58-17.06-.31-20.81a14.55,14.55,0,0,0-6.42-8.59C355,301,329,292.08,313,292.08H68.24C62.75,292.08,54.79,293.72,41.06,305.23Z"/><path class="cls-3" d="M34.78,313.75c-0.05.19-.11,0.35-0.16,0.55C33.39,319.22,35.85,334,38.31,341s7.38,7.79,14.36,7.79H354.13c7,0,9.84-8.61,10.25-16.82a145.29,145.29,0,0,0,.07-18.19H34.78Z"/><path class="cls-4" d="M351.54,231.48c4.3-2.27,2.77-6.4-1-3.83-10.86-4.26-38.16,4.08-49.28,3.83s-15.92-3.83-18.7-3.83c-2.53-4.26-6.82-3.23-2.53,1.31-0.25,10.61,1.77,26.78,2.53,34.11s-8.59,20.47-10.11,26c-5.06,3-5.31,6.13-1.26,4.55,8.85,3.54,50.55-1.18,56.87.42a52.1,52.1,0,0,0,12.74,1.39s8.27,4,3.7-1.95c1.36-6.41-.27-22.8,1-29.28S351.54,240.33,351.54,231.48Z"/><path class="cls-1" d="M272.43,289.11a38,38,0,0,1,2.79-6.28c5.51,11.28,29.07.21,44,2.78,17.13,3,15.48-11.53,16.47-24.12,0.83-10.61,9.37-27.77,15.43-34.16,3.37-1.83,4.56,2,.48,4.15,0,8.85-4.8,26.29-6.07,32.77s0.37,22.87-1,29.28c4.57,5.93-3.7,1.95-3.7,1.95A52.1,52.1,0,0,1,328,294.09c-6.32-1.6-48,3.12-56.87-.42C267.12,295.25,267.38,292.08,272.43,289.11Z"/><path class="cls-1" d="M324.8,255.21c-16.82-2.1-25.39,12.32-30.34,21.78,2-12.32,6.61-15.32,6.61-15.32s-9.76-9.31-9-15c2.4,6.61,7.7,11.77,11.57,12.47C315.34,249.35,324.8,255.21,324.8,255.21Z"/></svg>