<svg id="Layer_1" data-name="Layer 1" xmlns="http://www.w3.org/2000/svg" viewBox="0 0 201.16 52"><defs><style>.cls-1{fill:#fff;}</style></defs><title>doortask_logo_WithTextDoortask_AllWhite_Transparent</title><path class="cls-1" d="M230.1,93.83l0.23,0.4c0.88,0,1.77-.07,2.64,0a3,3,0,0,0,2.62-1.05c3.3-3.42,6.66-6.79,10-10.16a2.15,2.15,0,0,1,3.45,0c0.56,0.55,1.08,1.14,1.64,1.7l18.89,19a1.43,1.43,0,0,1,.64,1.67,1.52,1.52,0,0,1-1.63.77c-1.47,0-2.93,0-4.4,0-1.63,0-1.47-.24-1.47,1.5,0,6,0,12,0,18,0,1.48-.58,2.16-1.9,2.16q-13.52,0-27,0a1.67,1.67,0,0,1-1.84-1.87c0-1.47,0-2.93,0-4.4,0-2.47,0-2.44-2.47-2.34a0.68,0.68,0,0,0-.77.85c0,2.07,0,4.15,0,6.22a4.7,4.7,0,0,0,4.66,4.66q13.94,0,27.89,0a4.55,4.55,0,0,0,4-2.43,6.06,6.06,0,0,0,.64-3.32c0-4.93,0-9.87,0-14.8,0-.91.28-1.2,1.16-1.13a15.15,15.15,0,0,0,2.36,0,4.16,4.16,0,0,0,3.78-2.71,4,4,0,0,0-1-4.64q-10.53-10.7-21.13-21.34a5.42,5.42,0,0,0-7.78.11c-2.86,2.9-5.71,5.82-8.59,8.7C233.25,90.92,231.66,92.36,230.1,93.83Zm-6.05,22h8.46a1.15,1.15,0,0,0,1.38-1,1.24,1.24,0,0,0-1.23-1.13,2.89,2.89,0,0,0-.64,0H216.27a2.63,2.63,0,0,0-1.24.25,1,1,0,0,0-.61.93,1,1,0,0,0,.75.94,4.29,4.29,0,0,0,1.16.1H224Zm0-12.75h0c-1.64,0-3.29,0-4.93,0a1.1,1.1,0,0,0-1.25,1.06,1.14,1.14,0,0,0,1.21,1.11,2.68,2.68,0,0,0,.43,0h9c0.79,0,1.62-.12,1.6-1.13s-0.81-1.06-1.56-1.07H224Zm3.68,5.35h-2.89a1.15,1.15,0,0,0-1.36.94,1.08,1.08,0,0,0,1.14,1.18,35.37,35.37,0,0,0,6.3,0,1.06,1.06,0,0,0,1.1-1.1,1.11,1.11,0,0,0-1.29-1h-3Z" transform="translate(-214.42 -79)"/><polygon class="cls-1" points="25.89 21.66 25.89 21.7 38.87 23.76 38.57 44.35 25.89 46.27 25.89 46.3 41 46.3 41 21.66 25.89 21.66"/><ellipse class="cls-1" cx="37.59" cy="33.11" rx="0.43" ry="0.6"/><path class="cls-1" d="M289.82,117.64c-1.7,0-3.8,0-4.68-.14a1.23,1.23,0,0,1-1.29-1.32V97.65c0-1.36.37-1.66,1.53-1.8,1.36-.14,3.19-0.24,5.33-0.24h0.47c3.94,0,6.58.71,8.31,2.38s2.38,4,2.38,7.57v2c0,3.77-.75,6-2.41,7.63s-4.55,2.48-8.92,2.48h-0.71Zm-0.27-16.73v11.27c0,0.58.17,0.71,0.54,0.75s1.19,0,1.53,0h0.17a4,4,0,0,0,3-1c0.88-.88,1.29-2.38,1.29-4.72v-1.39c0-2.34-.37-3.83-1.15-4.65a4.11,4.11,0,0,0-3.16-1h-0.17c-0.41,0-1.09,0-1.46.07A0.49,0.49,0,0,0,289.55,100.91Z" transform="translate(-214.42 -79)"/><path class="cls-1" d="M319.62,110.41c0,3.46-.71,5.09-2.14,6.21a8.73,8.73,0,0,1-5.23,1.32h-0.41a8.73,8.73,0,0,1-5.23-1.32c-1.42-1.12-2.14-2.75-2.14-6.21v-2.17c0-3.46.71-5.09,2.14-6.21a8.74,8.74,0,0,1,5.23-1.32h0.41a8.73,8.73,0,0,1,5.23,1.32c1.43,1.12,2.14,2.71,2.14,6.18v2.21Zm-9.67.24c0,1.49.1,2.07,0.61,2.58a1.89,1.89,0,0,0,1.42.47h0.14a1.9,1.9,0,0,0,1.43-.47c0.51-.51.61-1.09,0.61-2.58V108c0-1.49-.1-2.07-0.61-2.58a1.89,1.89,0,0,0-1.43-.47H312a1.89,1.89,0,0,0-1.42.47c-0.51.51-.61,1.09-0.61,2.58v2.65Z" transform="translate(-214.42 -79)"/><path class="cls-1" d="M337.13,110.41c0,3.46-.71,5.09-2.14,6.21a8.73,8.73,0,0,1-5.23,1.32h-0.41a8.73,8.73,0,0,1-5.23-1.32c-1.42-1.12-2.14-2.75-2.14-6.21v-2.17c0-3.46.71-5.09,2.14-6.21a8.74,8.74,0,0,1,5.23-1.32h0.41A8.73,8.73,0,0,1,335,102c1.43,1.12,2.14,2.71,2.14,6.18v2.21Zm-9.67.24c0,1.49.1,2.07,0.61,2.58a1.89,1.89,0,0,0,1.42.47h0.14a1.9,1.9,0,0,0,1.43-.47c0.51-.51.61-1.09,0.61-2.58V108c0-1.49-.1-2.07-0.61-2.58a1.89,1.89,0,0,0-1.43-.47h-0.14a1.89,1.89,0,0,0-1.42.47c-0.51.51-.61,1.09-0.61,2.58v2.65Z" transform="translate(-214.42 -79)"/><path class="cls-1" d="M344.42,102.84c0.81-1.32,1.93-1.83,3.8-1.83h1.36a0.79,0.79,0,0,1,1,1v2.48a0.77,0.77,0,0,1-.92,1h-1a3.55,3.55,0,0,0-2.58.71,3.3,3.3,0,0,0-.58,2.34v8.21c0,0.65-.24,1-1.15,1H341.2c-0.92,0-1.15-.34-1.15-1V102c0-.68.27-1,1.15-1h1.63a1,1,0,0,1,1.22.78l0.27,1.05h0.1Z" transform="translate(-214.42 -79)"/><path class="cls-1" d="M352.39,100.29c-0.88,0-1.09-.2-1.09-1V96.73c0-.88.2-1.05,1.09-1.05H367c0.88,0,1.09.17,1.09,1.05v2.54c0,0.81-.2,1-1.09,1h-4.45v16.25c0,0.85-.2,1.09-1.26,1.09h-3.22c-1.05,0-1.25-.24-1.25-1.09V100.29h-4.45Z" transform="translate(-214.42 -79)"/><path class="cls-1" d="M377.67,116.24c-0.68,1-2.31,1.7-4.45,1.7h-0.51c-3.39,0-5.5-1.8-5.5-5.23v-0.37c0-3.8,2.14-5,6.68-5h0.24a20.81,20.81,0,0,1,2.38.14v-0.71a1.61,1.61,0,0,0-.58-1.49,3.49,3.49,0,0,0-2-.37,16.71,16.71,0,0,0-3.94.58c-0.85.2-1.05-.07-1.15-0.64l-0.27-1.8a6.43,6.43,0,0,1-.07-0.68,0.84,0.84,0,0,1,.81-0.88,22,22,0,0,1,5.8-.75c2.71,0,4.48.54,5.56,1.66,0.88,0.92,1.29,2.24,1.29,4.24v10.08c0,0.68-.27,1-1.15,1h-1.6a1,1,0,0,1-1.26-.78l-0.2-.61h-0.07ZM376.52,111a12,12,0,0,0-1.63-.1h-0.37c-1.56,0-2.21.27-2.21,1.53v0.14c0,1.26.71,1.56,1.9,1.56h0.24a2.33,2.33,0,0,0,1.59-.51,2,2,0,0,0,.48-1.66v-1Z" transform="translate(-214.42 -79)"/><path class="cls-1" d="M384.73,106a5,5,0,0,1,1.32-3.8c1.09-1.05,2.82-1.53,5.16-1.53h0.34a21.77,21.77,0,0,1,5,.61,0.65,0.65,0,0,1,.58.88L396.71,105c-0.07.44-.34,0.58-0.92,0.44a16.35,16.35,0,0,0-3.6-.47h0c-1.49,0-2,.24-2,0.92V106c0,0.64.44,0.85,1.93,1.15l1.59,0.34c2.88,0.61,4,1.8,4,4.65v0.51c0,3.53-2.1,5.33-6.65,5.33h-0.34a18,18,0,0,1-5.67-.92,0.83,0.83,0,0,1-.58-1.19L385,113.6a0.76,0.76,0,0,1,1.15-.64,15.45,15.45,0,0,0,4.07.78h0.1c1.53,0,2-.31,2-1v-0.1c0-.58-0.31-0.78-2-1.15l-1.49-.34c-2.88-.64-4.07-1.8-4.07-4.65V106Z" transform="translate(-214.42 -79)"/><path class="cls-1" d="M406,116.65c0,0.65-.24,1-1.15,1H401.7c-0.92,0-1.15-.34-1.15-1v-21c0-.64.24-1,1.15-1h3.12c0.92,0,1.15.34,1.15,1v11.06h0.24l3.22-4.92a1.36,1.36,0,0,1,1.42-.78h3.94c0.37,0,.58.14,0.58,0.41a1.38,1.38,0,0,1-.27.64l-3.9,5.84a2.13,2.13,0,0,0-.44,1,1.9,1.9,0,0,0,.44,1l4.17,6.58a1.08,1.08,0,0,1,.2.58,0.59,0.59,0,0,1-.71.54H411.1a1.5,1.5,0,0,1-1.66-.88l-3.22-5.7H406v5.6Z" transform="translate(-214.42 -79)"/></svg>