<svg id="Layer_1" data-name="Layer 1" xmlns="http://www.w3.org/2000/svg" viewBox="0 0 500 500"><defs><style>.cls-1{fill:#79619f;}.cls-2{fill:#a298b9;}.cls-3{fill:#593582;}</style></defs><title>242 [Converted] copy</title><rect class="cls-1" x="124.74" y="173.95" width="250.52" height="33.59"/><rect class="cls-2" x="124.74" y="0.07" width="250.53" height="163.33"/><path class="cls-3" d="M174.74,269.63c40.71,10.39,53.72,68.9,48.93,110.65-7.12,62.15-12.83,63.42-6.14,90C225,499.93,250,499.93,250,499.93s25,0,32.48-29.64c6.69-26.59,1-27.86-6.15-90-4.79-41.75,8.23-100.27,48.94-110.65,50-12.77,50-50,50-50H124.74S124.74,256.86,174.74,269.63ZM250,447.35a14.76,14.76,0,1,1-14.76,14.76A14.76,14.76,0,0,1,250,447.35Z"/></svg>