<svg id="Layer_1" data-name="Layer 1" xmlns="http://www.w3.org/2000/svg" viewBox="0 0 450 450"><defs><style>.cls-1{fill:#a197b7;}.cls-2{fill:#583481;}.cls-3{fill:#79619d;}.cls-4{fill:#873217;}.cls-5{fill:#6d210c;}</style></defs><title>8981 [Converted] copy</title><path class="cls-1" d="M225,443.2C104.68,443.2,6.79,345.32,6.79,225S104.68,6.8,225,6.8s218.2,97.89,218.2,218.2S345.32,443.2,225,443.2ZM225,32C118.6,32,32,118.61,32,225S118.6,418,225,418,418,331.4,418,225,331.4,32,225,32Z"/><path class="cls-2" d="M150.06,21.3c0.17,7.48,3.61,23.77,8.53,36.66,5.3,13.89,18.33,23.75,28.38,30.45A59.51,59.51,0,0,1,202.26,103s11.59-14.09,7.91-14.68-25.39-9.29-39-24.33c-8-8.81-14.42-31-14.42-42.64C156.74,11.1,149.81,10.26,150.06,21.3Z"/><path class="cls-2" d="M300.66,21.3C300.49,28.78,297,45.07,292.13,58c-5.3,13.89-18.33,23.75-28.38,30.45A59.52,59.52,0,0,0,248.45,103s-11.59-14.09-7.91-14.68,25.39-9.29,39-24.33c8-8.81,14.42-31,14.42-42.64C294,11.1,300.91,10.26,300.66,21.3Z"/><path class="cls-3" d="M162.37,149.37s-11.91,19.72-26.45,26.92-33.25,7.2-32.84,13.7c0.49,7.71,20.13,10.26,35.79-1.79s29.9-33,29.9-33Z"/><path class="cls-1" d="M187,150.45s-18.68-6.15-23.8-6.23c-7.52-.12-7.66,17.35,8,23.09S187,150.45,187,150.45Z"/><path class="cls-3" d="M148,204.46s-11.91,19.72-26.45,26.92-33.25,7.2-32.84,13.7c0.49,7.71,20.13,10.26,35.79-1.79s29.9-33,29.9-33Z"/><path class="cls-1" d="M172.6,205.54s-18.68-6.15-23.8-6.23c-7.52-.12-7.66,17.35,8,23.09S172.6,205.54,172.6,205.54Z"/><path class="cls-3" d="M143.76,257.62s-4,22.69-15,34.65S100.38,311,103.11,316.89c3.24,7,22.47,2.31,32.73-14.58s16-41.6,16-41.6Z"/><path class="cls-1" d="M167.09,249.75s-19.64,1-24.44,2.78c-7.06,2.61-.88,18.94,15.78,18.66S167.09,249.75,167.09,249.75Z"/><path class="cls-3" d="M285.75,149.37s11.91,19.72,26.45,26.92,33.25,7.2,32.84,13.7c-0.49,7.71-20.13,10.26-35.79-1.79s-29.9-33-29.9-33Z"/><path class="cls-1" d="M261.16,150.45s18.68-6.15,23.8-6.23c7.52-.12,7.66,17.35-8,23.09S261.16,150.45,261.16,150.45Z"/><path class="cls-3" d="M300.13,204.46s11.91,19.72,26.45,26.92,33.25,7.2,32.84,13.7c-0.49,7.71-20.13,10.26-35.79-1.79s-29.9-33-29.9-33Z"/><path class="cls-1" d="M275.53,205.54s18.68-6.15,23.8-6.23c7.52-.12,7.66,17.35-8,23.09S275.53,205.54,275.53,205.54Z"/><path class="cls-3" d="M304.37,257.62s4,22.69,15,34.65S347.74,311,345,316.89c-3.24,7-22.47,2.31-32.73-14.58s-16-41.6-16-41.6Z"/><path class="cls-1" d="M281,249.75s19.64,1,24.44,2.78c7.06,2.61.88,18.94-15.78,18.66S281,249.75,281,249.75Z"/><path class="cls-2" d="M215.69,242.64c5.95,1.25,14.16,1.82,19.65.69a66.11,66.11,0,0,0,29.45-14.07c-0.54-5.09-1.13-10-1.76-14.73-0.58-4.33-1.16-8.45-1.74-12.41-8.76,7-23.36,12.66-36.29,12.4-13.58.27-29.47-6-38-13.42-19-16.42-10.44-48.56-9.89-50.56a275.37,275.37,0,0,0-13.91,48S182.39,235.62,215.69,242.64Z"/><path class="cls-2" d="M211.44,296.85c13.28,1.15,21.36,1.13,26.85,0a69,69,0,0,0,29.07-13.64c0.24-10.6-.06-21.35-0.69-31.81-1.31,1.29-2.69,2.57-4.18,3.82-8.59,7.19-24.28,13.2-37.75,13-13.47.2-29.16-5.81-37.75-13-28.52-23.89-23.8-56.63-23.8-56.63a367.35,367.35,0,0,0-6,51.25C157.87,251.43,178.16,294,211.44,296.85Z"/><path class="cls-2" d="M215.69,345.1c5.95,1.25,14.16,1.82,19.65.69a73.51,73.51,0,0,0,24.67-10,157,157,0,0,0,5.8-29.05c-1.08,1-2.18,2-3.35,3-8.59,7.19-24,10.38-37.47,10.18-13.47.2-28.77-3.87-38-10.18-27.05-18.44-29.64-55-29.86-59.53A315.62,315.62,0,0,0,159,302.69C159.32,303.11,182.59,338.12,215.69,345.1Z"/><path class="cls-2" d="M220.25,375.6A39.24,39.24,0,0,0,238.41,369a55.87,55.87,0,0,1-13.69,1.69c-13.47.2-29.16-5.81-37.75-13a77.87,77.87,0,0,1-25.89-40.79c1.65,9.91,3.59,18.82,5.48,26.84s7,19.82,14.76,30.75A136.79,136.79,0,0,0,220.25,375.6Z"/><path class="cls-2" d="M213.81,189.92c9,1.4,19.48,1.66,24.33,0a50.15,50.15,0,0,0,19.3-12c-6.19-35.5-11.19-49-11.19-49l1.34-.84H187a235.68,235.68,0,0,0-9.86,22.35C177.17,150.87,182.87,185.13,213.81,189.92Z"/><path class="cls-4" d="M177.1,150.45l0,0.1,0-.08v0Z"/><path class="cls-3" d="M187,201.11c8.56,7.41,24.46,13.7,38,13.42,12.93,0.26,27.53-5.45,36.29-12.4-1.31-9-2.6-17-3.85-24.16a50.15,50.15,0,0,1-19.3,12c-4.84,1.66-15.3,1.4-24.33,0-30.95-4.79-36.64-39.05-36.71-39.45l0,0.08C176.52,152.55,168,184.69,187,201.11Z"/><path class="cls-3" d="M187,255.22c8.59,7.19,24.28,13.2,37.75,13,13.47,0.2,29.16-5.81,37.75-13,1.49-1.25,2.87-2.53,4.18-3.82-0.46-7.6-1.11-15-1.86-22.14a66.11,66.11,0,0,1-29.45,14.07c-5.49,1.13-13.7.56-19.65-.69-33.31-7-52.52-44-52.52-44S158.45,231.34,187,255.22Z"/><path class="cls-4" d="M159,302.67a60.12,60.12,0,0,0,2.05,14.22c-0.75-4.52-1.44-9.26-2-14.2v0Z"/><path class="cls-3" d="M187,357.68c8.59,7.19,24.28,13.2,37.75,13A55.87,55.87,0,0,0,238.41,369c10.18-7,17.09-18.72,21.61-33.18a73.51,73.51,0,0,1-24.67,10c-5.49,1.13-13.7.56-19.65-.69-33.11-7-56.38-42-56.66-42.41,0.6,4.94,1.28,9.68,2,14.2A77.87,77.87,0,0,0,187,357.68Z"/><path class="cls-4" d="M157.09,249.77s0,0.16,0,.46c0-.13,0-0.25,0-0.38Z"/><path class="cls-3" d="M187,309.75c9.26,6.31,24.56,10.38,38,10.18,13.47,0.2,28.88-3,37.47-10.18,1.16-1,2.27-2,3.35-3,0.86-7.64,1.35-15.54,1.53-23.54a69,69,0,0,1-29.07,13.64c-5.49,1.13-13.56,1.15-26.85,0-33.28-2.88-53.56-45.42-54.31-47,0,0.13,0,.25,0,0.38C157.33,254.72,159.92,291.31,187,309.75Z"/><path class="cls-3" d="M223.66,402.65v0.05l0.43,0c0.27,0,.53,0,0.8,0s0.53,0,.8,0l0.43,0v-0.05c30.93-1.64,52.73-40.31,57.11-58.93,2.06-8.75,4.17-18.62,5.91-29.63a80.22,80.22,0,0,1-26.67,43.59c-5.76,4.82-14.72,9.06-24.06,11.31a39.24,39.24,0,0,1-18.16,6.62,136.79,136.79,0,0,1-38.93-1.13C191.48,388.84,206.09,401.72,223.66,402.65Z"/><path class="cls-3" d="M265.82,306.76a157,157,0,0,1-5.8,29.05,87.56,87.56,0,0,0,30.93-34.75,315.78,315.78,0,0,0,1.77-49.72C292,258.19,287.86,286,265.82,306.76Z"/><path class="cls-3" d="M257.44,178a56.48,56.48,0,0,0,15-27.52s9.71,33.7-9.86,50.66c-0.4.35-.89,0.68-1.33,1,0.58,4,1.16,8.08,1.74,12.41,0.63,4.69,1.22,9.63,1.76,14.73a72.46,72.46,0,0,0,21.48-30.67s4.22,29.41-19.61,52.81c0.64,10.45.93,21.2,0.69,31.81a88.41,88.41,0,0,0,25.32-33,367.08,367.08,0,0,0-6.06-51.63,277,277,0,0,0-23.8-70.47H247.59l-1.34.84S251.25,142.47,257.44,178Z"/><path class="cls-2" d="M272.48,150.45a56.48,56.48,0,0,1-15,27.52c1.25,7.14,2.54,15.17,3.85,24.16,0.43-.34.92-0.68,1.33-1C282.19,184.16,272.48,150.45,272.48,150.45Z"/><path class="cls-2" d="M286.27,198.59a72.46,72.46,0,0,1-21.48,30.67c0.76,7.11,1.4,14.54,1.86,22.14C290.49,228,286.27,198.59,286.27,198.59Z"/><path class="cls-5" d="M291,301h0c-0.53,4.54-1.15,8.85-1.81,13A63.73,63.73,0,0,0,291,301Z"/><path class="cls-2" d="M260,335.81C255.5,350.27,248.59,362,238.41,369c9.34-2.24,18.3-6.48,24.06-11.31a80.22,80.22,0,0,0,26.67-43.59c0.66-4.18,1.28-8.5,1.81-13A87.56,87.56,0,0,1,260,335.81Z"/><path class="cls-5" d="M292.86,249.77l-0.18.45c0,0.37,0,.75,0,1.12C292.83,250.32,292.86,249.77,292.86,249.77Z"/><path class="cls-2" d="M267.35,283.21c-0.18,8-.67,15.91-1.53,23.54,22-20.72,26.2-48.57,26.9-55.42,0-.37,0-0.75,0-1.12A88.41,88.41,0,0,1,267.35,283.21Z"/><path class="cls-2" d="M204.93,118.62c3.58,14.88,37.49,3.66,55-3.22-4.5-13.91-14.75-34.25-36.24-34.25a33,33,0,0,0-12.42,2.29C207.05,91.87,201.84,105.79,204.93,118.62Z"/><path class="cls-1" d="M187,128.12s18,12.86,38,12.86c19,0,38-12.86,38-12.86a85.19,85.19,0,0,0-3.13-12.73c-17.49,6.88-51.39,18.1-55,3.22-3.09-12.83,2.12-26.75,6.31-35.18C187.83,92.82,187,128.12,187,128.12Z"/><rect class="cls-1" x="9.33" y="210.66" width="420.13" height="25.25" transform="translate(-93.64 221.78) rotate(-45.23)"/></svg>