<svg id="Layer_4" data-name="Layer 4" xmlns="http://www.w3.org/2000/svg" viewBox="0 0 450 450"><defs><style>.cls-1{fill:#faa322;fill-rule:evenodd;}.cls-2{fill:#583481;}.cls-3{fill:#a197b7;}.cls-4{fill:#79619d;}</style></defs><title>9895 [Converted]</title><path class="cls-1" d="M198.42,222.23l-4.15,16.88"/><path class="cls-2" d="M165.44,0h19.91a7.42,7.42,0,0,1,7.42,7.42V342.6H158V7.42A7.42,7.42,0,0,1,165.44,0Z"/><polygon class="cls-3" points="167.45 9.43 167.45 333.17 176.55 333.17 178.19 9.43 167.45 9.43"/><path class="cls-2" d="M153.92,363.83h42.94V328.13a6.75,6.75,0,0,0-6.75-6.76H160.67a6.75,6.75,0,0,0-6.75,6.76v35.71Z"/><path class="cls-4" d="M83.7,438.13a94.4,94.4,0,0,0,.72,11.58H266.35a94.39,94.39,0,0,0,.73-11.58,90.29,90.29,0,0,0-1.39-15.89,91.69,91.69,0,0,0-180.6,0A90.29,90.29,0,0,0,83.7,438.13Z"/><path class="cls-2" d="M93.16,440.28c0-.72,0-1.43,0-2.15a82.23,82.23,0,0,1,82.25-82.22l0.37,0c-34.53,15.61-57.34,38.13-58.13,84.35H93.16Z"/><path class="cls-3" d="M239.69,432.35c0.06-1.3.13-2.59,0.13-3.88a84.43,84.43,0,0,0-1.3-14.88,85.45,85.45,0,0,0-38.8-57.84A85.54,85.54,0,0,1,260,423.25a83.63,83.63,0,0,1,1,9.1H239.69Z"/><path class="cls-2" d="M76,429v14a6.75,6.75,0,0,0,6.74,6.75H268a6.75,6.75,0,0,0,6.75-6.75V429a6.74,6.74,0,0,0-6.75-6.75H82.74A6.73,6.73,0,0,0,76,429Z"/><path class="cls-4" d="M370,42V41.89h0a40.4,40.4,0,0,0-2.8-14.24C360.16,9.75,342.4-4.52,314.76,4.84L272.21,17a15.75,15.75,0,0,0-11.42,15.14v5.65h63.78l7,23.6v53.28h33l4.89-66A40,40,0,0,0,370,42Z"/><path class="cls-2" d="M339.68,106.58V60.22L330.6,29.7H269.28a7.68,7.68,0,0,1,5.15-4.92l42.73-12.21,0.19-.06A44.21,44.21,0,0,1,331.44,10c18.15,0,25.81,14.44,28.25,20.65A32.17,32.17,0,0,1,361.93,42v0.42a32.79,32.79,0,0,1-.4,5l-0.05.33-4.36,58.8H339.68Z"/><circle class="cls-2" cx="263.26" cy="37.71" r="2.48"/><circle class="cls-2" cx="268.23" cy="37.71" r="2.48"/><circle class="cls-2" cx="273.19" cy="37.71" r="2.48"/><circle class="cls-2" cx="278.15" cy="37.71" r="2.48"/><circle class="cls-2" cx="283.11" cy="37.71" r="2.48"/><circle class="cls-2" cx="288.07" cy="37.71" r="2.48"/><circle class="cls-2" cx="293.04" cy="37.71" r="2.48"/><circle class="cls-2" cx="298" cy="37.71" r="2.48"/><circle class="cls-2" cx="302.96" cy="37.71" r="2.48"/><circle class="cls-2" cx="307.92" cy="37.71" r="2.48"/><circle class="cls-2" cx="312.88" cy="37.71" r="2.48"/><circle class="cls-2" cx="317.85" cy="37.71" r="2.48"/><path class="cls-2" d="M304.28,114.67l-13.82,27.11a29.39,29.39,0,0,0-3.13,15.44l11.3,159.42h34.31V150.57l7.92-36.74Z"/><polygon class="cls-2" points="366.95 307.37 364.43 386.66 363.99 399.07 339.37 399.07 339.37 398.71 339.22 388.46 339 363.83 339 363.47 338.64 324.19 338.5 307.3 357.21 307.37 366.95 307.37"/><path class="cls-4" d="M362.59,110.5L329.23,85.4H271.64L277,102a41.53,41.53,0,0,0,14.75,20.64l45.47,33.85,1.36,150.8L367,307.38l5.68-175.9A25.22,25.22,0,0,0,362.59,110.5Z"/><path class="cls-3" d="M271.64,85.4h57.59V64.77h-63.8V71.2A18.82,18.82,0,0,0,271.64,85.4Z"/><circle class="cls-2" cx="267.91" cy="64.77" r="2.48"/><circle class="cls-2" cx="272.88" cy="64.77" r="2.48"/><circle class="cls-2" cx="277.84" cy="64.77" r="2.48"/><circle class="cls-2" cx="282.8" cy="64.77" r="2.48"/><circle class="cls-2" cx="287.76" cy="64.77" r="2.48"/><circle class="cls-2" cx="292.72" cy="64.77" r="2.48"/><circle class="cls-2" cx="297.68" cy="64.77" r="2.48"/><circle class="cls-2" cx="302.64" cy="64.77" r="2.48"/><circle class="cls-2" cx="307.61" cy="64.77" r="2.48"/><circle class="cls-2" cx="312.57" cy="64.77" r="2.48"/><circle class="cls-2" cx="317.53" cy="64.77" r="2.48"/><circle class="cls-2" cx="322.49" cy="64.77" r="2.48"/><circle class="cls-3" cx="287.22" cy="94.73" r="4.42"/><circle class="cls-3" cx="317.85" cy="94.73" r="4.42"/><circle class="cls-3" cx="329.23" cy="118.38" r="9.57"/><path class="cls-2" d="M328.35,336a2.18,2.18,0,0,1-1.9,2.11L306,340.33a1.66,1.66,0,0,1-1.89-1.68h0a2.18,2.18,0,0,1,1.89-2.11l20.42-2.27a1.66,1.66,0,0,1,1.9,1.68h0Z"/><path class="cls-2" d="M328.35,342a2.18,2.18,0,0,1-1.9,2.11L306,346.43a1.66,1.66,0,0,1-1.89-1.68h0a2.18,2.18,0,0,1,1.89-2.11l20.42-2.28a1.67,1.67,0,0,1,1.9,1.69h0Z"/><path class="cls-2" d="M328.35,348.14a2.18,2.18,0,0,1-1.9,2.11L306,352.52a1.66,1.66,0,0,1-1.89-1.68h0a2.17,2.17,0,0,1,1.89-2.11l20.42-2.28a1.67,1.67,0,0,1,1.9,1.69h0Z"/><path class="cls-2" d="M328.35,354.23a2.17,2.17,0,0,1-1.9,2.11L306,358.61a1.66,1.66,0,0,1-1.89-1.68h0a2.18,2.18,0,0,1,1.89-2.11l20.42-2.27a1.66,1.66,0,0,1,1.9,1.68h0Z"/><path class="cls-2" d="M328.35,360.32a2.18,2.18,0,0,1-1.9,2.11L306,364.7a1.66,1.66,0,0,1-1.89-1.68h0a2.17,2.17,0,0,1,1.89-2.11l20.42-2.27a1.66,1.66,0,0,1,1.9,1.68h0Z"/><path class="cls-2" d="M328.35,366.41a2.18,2.18,0,0,1-1.9,2.11L306,370.79a1.66,1.66,0,0,1-1.89-1.68h0A2.17,2.17,0,0,1,306,367l20.42-2.28a1.67,1.67,0,0,1,1.9,1.69h0Z"/><path class="cls-2" d="M328.35,372.5a2.17,2.17,0,0,1-1.9,2.11L306,376.89a1.66,1.66,0,0,1-1.89-1.69h0a2.18,2.18,0,0,1,1.89-2.11l20.42-2.27a1.67,1.67,0,0,1,1.9,1.69h0Z"/><path class="cls-2" d="M328.35,378.59a2.18,2.18,0,0,1-1.9,2.11L306,383a1.67,1.67,0,0,1-1.89-1.69h0a2.18,2.18,0,0,1,1.89-2.11l20.42-2.27a1.66,1.66,0,0,1,1.9,1.68h0Z"/><path class="cls-2" d="M328.35,384.69a2.18,2.18,0,0,1-1.9,2.11L306,389.07a1.66,1.66,0,0,1-1.89-1.68h0a2.18,2.18,0,0,1,1.89-2.11L326.45,383a1.66,1.66,0,0,1,1.9,1.68h0Z"/><path class="cls-2" d="M328.35,390.78a2.18,2.18,0,0,1-1.9,2.11L306,395.16a1.66,1.66,0,0,1-1.89-1.69h0a2.17,2.17,0,0,1,1.89-2.11l20.42-2.28a1.67,1.67,0,0,1,1.9,1.69h0Z"/><path class="cls-2" d="M328.32,396.84a2.07,2.07,0,0,1-1,1.81v0.07h-0.07a2.6,2.6,0,0,1-.79.29L306,401.24a1,1,0,0,1-.79-0.14,1.51,1.51,0,0,1-1.08-1.52,3.57,3.57,0,0,1,.15-0.87h0.07a1.88,1.88,0,0,1,.87-0.94l0.79-.29,20.44-2.31a1.88,1.88,0,0,1,.87.14A1.61,1.61,0,0,1,328.32,396.84Z"/><path class="cls-2" d="M328.32,403a2,2,0,0,1-1,1.73,1.65,1.65,0,0,1-.87.36L306,407.38a1.42,1.42,0,0,1-.79-0.14,1.59,1.59,0,0,1-1.08-1.59,2.14,2.14,0,0,1,1.08-1.81l0.79-.29,20.44-2.31a1.88,1.88,0,0,1,.87.14A1.64,1.64,0,0,1,328.32,403Z"/><path class="cls-2" d="M328.32,409a2.07,2.07,0,0,1-1,1.81,1.58,1.58,0,0,1-.87.29L306,413.45a1.42,1.42,0,0,1-.79-0.14,1.57,1.57,0,0,1-1.08-1.52,2.17,2.17,0,0,1,1.08-1.88l0.79-.29,20.44-2.24a1.24,1.24,0,0,1,.87.14A1.5,1.5,0,0,1,328.32,409Z"/><path class="cls-2" d="M328.32,415.18a2,2,0,0,1-1,1.73,1.62,1.62,0,0,1-.87.36L306,419.51a1,1,0,0,1-.79-0.14,1.5,1.5,0,0,1-1.08-1.52,2,2,0,0,1,1.08-1.81l0.79-.29,20.44-2.31a1.84,1.84,0,0,1,.87.14A1.7,1.7,0,0,1,328.32,415.18Z"/><path class="cls-2" d="M328.32,421.24a2,2,0,0,1-1,1.73,1.62,1.62,0,0,1-.87.36l-17.33,1.95H309l-3,.36a1.42,1.42,0,0,1-.79-0.14,1.5,1.5,0,0,1-1-1.16,0.89,0.89,0,0,1-.07-0.43,2.13,2.13,0,0,1,1.08-1.81l0.79-.29,20.44-2.24a1.26,1.26,0,0,1,.87.14A1.39,1.39,0,0,1,328.32,421.24Z"/><path class="cls-2" d="M328.32,427.31a2.06,2.06,0,0,1-1,1.81,1.58,1.58,0,0,1-.87.29L306,431.71a1,1,0,0,1-.79-0.14,1.5,1.5,0,0,1-1.08-1.52c0-.51.15-0.94,1.08-1.88l0.79-.29,12.42-1.37h0.14l7.87-.87a1.26,1.26,0,0,1,.87.14A1.6,1.6,0,0,1,328.32,427.31Z"/><path class="cls-2" d="M328.35,433.42a2.18,2.18,0,0,1-1.9,2.11L306,437.8a1.66,1.66,0,0,1-1.89-1.68h0A2.18,2.18,0,0,1,306,434l20.42-2.27a1.66,1.66,0,0,1,1.9,1.68h0Z"/><path class="cls-2" d="M328.35,439.51a2.17,2.17,0,0,1-1.9,2.11L306,443.9a1.66,1.66,0,0,1-1.89-1.68h0A2.17,2.17,0,0,1,306,440.1l20.42-2.28a1.66,1.66,0,0,1,1.9,1.68h0Z"/><path class="cls-2" d="M328.35,445.6a2.17,2.17,0,0,1-1.9,2.11L306,450a1.66,1.66,0,0,1-1.89-1.69h0a2.18,2.18,0,0,1,1.89-2.11l20.42-2.27a1.66,1.66,0,0,1,1.9,1.68h0Z"/><path class="cls-3" d="M333.58,335.35H297.75a2.07,2.07,0,0,1-2.06-2.07V318.7a2.07,2.07,0,0,1,2.06-2.07h35.83a2.06,2.06,0,0,1,2.06,2.07v14.58A2.06,2.06,0,0,1,333.58,335.35Z"/><path class="cls-2" d="M299.53,332.44a1.2,1.2,0,0,1-1.17,1.22h0a1.19,1.19,0,0,1-1.17-1.22v-12.9a1.19,1.19,0,0,1,1.17-1.22h0a1.2,1.2,0,0,1,1.17,1.22v12.9Z"/><path class="cls-2" d="M303,332.44a1.2,1.2,0,0,1-1.17,1.22h0a1.2,1.2,0,0,1-1.17-1.22v-12.9a1.2,1.2,0,0,1,1.17-1.22h0a1.2,1.2,0,0,1,1.17,1.22v12.9Z"/><path class="cls-2" d="M306.45,332.44a1.2,1.2,0,0,1-1.17,1.22h0a1.19,1.19,0,0,1-1.17-1.22v-12.9a1.19,1.19,0,0,1,1.17-1.22h0a1.2,1.2,0,0,1,1.17,1.22v12.9Z"/><path class="cls-2" d="M309.91,332.44a1.2,1.2,0,0,1-1.17,1.22h0a1.2,1.2,0,0,1-1.17-1.22v-12.9a1.2,1.2,0,0,1,1.17-1.22h0a1.2,1.2,0,0,1,1.17,1.22v12.9Z"/><path class="cls-2" d="M313.37,332.44a1.2,1.2,0,0,1-1.16,1.22h0a1.19,1.19,0,0,1-1.17-1.22v-12.9a1.19,1.19,0,0,1,1.17-1.22h0a1.2,1.2,0,0,1,1.16,1.22v12.9Z"/><path class="cls-2" d="M316.82,332.44a1.19,1.19,0,0,1-1.17,1.22h0a1.2,1.2,0,0,1-1.16-1.22v-12.9a1.2,1.2,0,0,1,1.16-1.22h0a1.19,1.19,0,0,1,1.17,1.22v12.9Z"/><path class="cls-2" d="M320.29,332.44a1.2,1.2,0,0,1-1.17,1.22h0a1.19,1.19,0,0,1-1.17-1.22v-12.9a1.19,1.19,0,0,1,1.17-1.22h0a1.2,1.2,0,0,1,1.17,1.22v12.9Z"/><path class="cls-2" d="M323.74,332.44a1.19,1.19,0,0,1-1.17,1.22h0a1.2,1.2,0,0,1-1.17-1.22v-12.9a1.2,1.2,0,0,1,1.17-1.22h0a1.19,1.19,0,0,1,1.17,1.22v12.9Z"/><path class="cls-2" d="M327.2,332.44a1.2,1.2,0,0,1-1.17,1.22h0a1.19,1.19,0,0,1-1.17-1.22v-12.9a1.19,1.19,0,0,1,1.17-1.22h0a1.2,1.2,0,0,1,1.17,1.22v12.9Z"/><path class="cls-2" d="M330.66,332.44a1.19,1.19,0,0,1-1.17,1.22h0a1.2,1.2,0,0,1-1.17-1.22v-12.9a1.2,1.2,0,0,1,1.17-1.22h0a1.19,1.19,0,0,1,1.17,1.22v12.9Z"/><path class="cls-2" d="M334.12,332.44a1.2,1.2,0,0,1-1.17,1.22h0a1.2,1.2,0,0,1-1.17-1.22v-12.9a1.2,1.2,0,0,1,1.17-1.22h0a1.2,1.2,0,0,1,1.17,1.22v12.9Z"/></svg>