<svg id="Layer_1" data-name="Layer 1" xmlns="http://www.w3.org/2000/svg" viewBox="0 0 450 450"><defs><style>.cls-1{fill:#a197b7;}.cls-2{fill:#79619d;}.cls-3{fill:#fff;}.cls-4{fill:#dbdbdb;}.cls-5{fill:#583481;}</style></defs><title>10090 [Converted]</title><rect class="cls-1" x="72.2" y="22.27" width="298.09" height="316.65"/><rect class="cls-2" x="82.49" y="32.27" width="133.94" height="296.73"/><rect class="cls-2" x="225.91" y="32.27" width="133.94" height="296.73"/><polygon class="cls-3" points="266.72 324.62 287.64 324.62 355.82 215.01 355.82 179.75 266.72 324.62"/><polygon class="cls-3" points="355.82 36.36 309.32 36.36 283.77 36.36 254.86 36.36 229.93 36.36 229.93 76.93 229.93 123.98 229.93 165.57 229.93 324.62 252.18 324.62 355.82 158.03 355.82 36.36"/><polygon class="cls-4" points="355.82 158.03 252.18 324.62 266.72 324.62 355.82 179.75 355.82 158.03"/><polygon class="cls-4" points="283.77 36.36 229.93 123.98 229.93 165.57 309.32 36.36 283.77 36.36"/><polygon class="cls-4" points="229.93 36.36 229.93 76.93 254.86 36.36 229.93 36.36"/><polygon class="cls-4" points="355.82 215.01 287.64 324.62 355.82 324.62 355.82 215.01"/><polygon class="cls-3" points="178.84 36.51 153 36.51 127.44 36.51 86.51 36.51 86.51 103.12 86.51 144.71 86.51 186.76 86.51 308.42 86.51 324.77 212.4 324.77 212.4 103.54 212.4 36.51 178.84 36.51"/><polygon class="cls-4" points="127.44 36.51 86.51 103.12 86.51 144.71 153 36.51 127.44 36.51"/><polygon class="cls-4" points="212.4 36.51 178.84 36.51 86.51 186.76 86.51 308.42 212.4 103.54 212.4 36.51"/><rect class="cls-2" x="72.2" y="338.07" width="298.09" height="4.95"/><path class="cls-5" d="M436.64,4.58h-9.91V1.43h-4.12V4.58H24.22V1.43H20.1V4.58h-6a5.44,5.44,0,1,0,0,10.88h6v3.15h4.12V15.46H422.61v3.15h4.12V15.46h9.91A5.44,5.44,0,0,0,436.64,4.58Z"/><path class="cls-2" d="M53.24,299s-16.16,35.81-20,75C30.66,399.85,27,425.47,27,425.47s9.65,10.56,22.59,2.28,13.9-117.09,13.9-117.09Z"/><rect class="cls-5" x="42.35" width="3.53" height="28.28"/><rect class="cls-5" x="71.41" width="3.53" height="28.28"/><rect class="cls-5" x="100.47" width="3.53" height="28.28"/><rect class="cls-5" x="129.53" width="3.53" height="28.28"/><rect class="cls-5" x="158.58" width="3.53" height="28.28"/><rect class="cls-5" x="185.77" width="3.53" height="28.28"/><rect class="cls-5" x="210.61" width="3.53" height="28.28"/><path class="cls-5" d="M202.58,21.28H39.91s-2.83,91.66-.52,141.63C43.16,244,50.83,282,50.83,282l3.68,13.31S46.85,341.19,44,362c-7,51.52-7,72.64-7,72.64a13.5,13.5,0,0,1,4.55-4.21c3.17-1.63,8.63.86,10.32,5,6.68,16.31,12.67,16.36,20.47,12.39,18.75-9.55,18.46-28.62,27.47-22a7.47,7.47,0,0,1,3.17,5.39c0.64-6-3-44.54-8.27-62.74s-13.59-60.79-13.59-60.79l3.05-3.09s11,29.19,18.51,51.17,13.4,66.63,12.36,77.27a25,25,0,0,0,1.12,11.27c4.61-2.23,17.08-10.24,17.08-10.24s-1.9-33.68-14.42-76.24c-5.86-19.9-19.64-42.93-27.42-53.23,0.11-2.32,5.39-15.25,5.39-15.25s49.67-8.41,82.64-82.27C209,141,221.24,21.28,221.24,21.28H202.58Z"/><path class="cls-1" d="M179.52,53.72s13.69,56.47,3.78,98.42c-19.58,82.92-58.68,100.28-58.68,100.28s36.52-51.17,47.86-104.57S179.52,53.72,179.52,53.72Z"/><path class="cls-1" d="M149.32,28.85s8.63,25.39,7.2,60.7S146.95,169,142.1,186.66c-7,25.24-17.46,39.68-17.46,39.68S143.13,166.57,148.28,113,149.32,28.85,149.32,28.85Z"/><path class="cls-1" d="M76.15,308s0,16.74-1.69,31.68c-3.26,28.8-7.74,47.39-7.74,47.39V309.27Z"/><path class="cls-1" d="M84.26,304.63s16.2,51.46,21.82,71.22a189.26,189.26,0,0,1,6.64,35.59s1.25-35.72-4-56.32-21.17-52.2-21.17-52.2Z"/><path class="cls-2" d="M115.13,433.08c1-10.65-4.81-55.29-12.36-77.27s-18.51-51.17-18.51-51.17l-3.05,3.09s8.37,42.59,13.59,60.79,8.9,56.77,8.27,62.74c0.74,6.36-5.21,13.87,1.16,15.57a9.85,9.85,0,0,0,2.89.23,19.93,19.93,0,0,0,5.9-1.3c1.11-.41,2.19-0.9,3.24-1.41A25,25,0,0,1,115.13,433.08Z"/><path class="cls-2" d="M63.56,304.63s-0.11,15.11,0,31.25c0.07,9.78,2.92,58.39,2.92,58.39s4.36-22,3.29-44.82c-0.65-13.93-.63-41-0.63-41Z"/><path class="cls-2" d="M123.3,30.57s0,81.34-15.93,190c-2.82,19.25-19.55,68-31.21,82.31,17.74-16.71,29.54-51.37,36.7-79.22C136,133.54,123.3,30.57,123.3,30.57Z"/><path class="cls-2" d="M79,251.06s-6.45,40.44-12.27,48.17c-3.77,5,4.13,2.58,4.13,2.58S80.53,282,79,251.06Z"/><path class="cls-2" d="M63.51,131c-4.36,40.5,3.21,90.73,2.08,152.29C77,238.58,66.72,158.84,63.51,131Z"/><path class="cls-2" d="M181.42,28.28s-5,75.62-11.29,110.45c-4.51,25.09-27.52,91.19-51.91,122.12,25.76-16.14,52.63-85.17,59.07-120C188.38,80.85,181.42,28.28,181.42,28.28Z"/><path class="cls-2" d="M87.81,28.28C83.2,57.9,82.46,129.51,82.49,165.57,90,140.24,92.48,71.72,87.81,28.28Z"/><path class="cls-2" d="M149.32,28.85c-0.34,30.94-3.37,66.88-5.5,97.74C142,152.38,123.3,229.93,123.3,229.93s19.84-51.35,25-99.37C151,105.66,155.27,53.35,149.32,28.85Z"/><path class="cls-1" d="M88.79,370.57s1.82,22.15,2.71,29.62a120.38,120.38,0,0,0,4,17.52s1.23-11.85.33-19.58S88.79,370.57,88.79,370.57Z"/><path class="cls-1" d="M106.49,86.14s-6.39,68.58-9.6,91.76-12.62,70.66-12.62,70.66,14-41.29,19.71-77.87S106.49,86.14,106.49,86.14Z"/><path class="cls-1" d="M69.93,307.87c-5.24-1.43-10.16-7.29-10.68-11.43,2.89,4,14.83,8,22.72,5.83,4.46-1.93,9.38-5.07,11.4-10.88h0c-3.71,1.71-10.31,3.69-19.52,2.42A51.13,51.13,0,0,1,51.66,285s0.3,14.25,3.19,17.89c7.33,9.22,15.34,12.89,29.41,7.13a17.65,17.65,0,0,0,8.26-7.34C86.48,307.5,77.48,309.94,69.93,307.87Z"/><path class="cls-2" d="M93.38,291.39h0c-2,5.8-6.95,9-11.4,10.88-7.88,2.18-19.82-1.82-22.72-5.83,0.52,4.13,5.45,10,10.68,11.43,7.55,2.06,16.55-.37,22.59-5.17a33.78,33.78,0,0,0,4.37-13.32A19.21,19.21,0,0,1,93.38,291.39Z"/><path class="cls-1" d="M49.19,30.57s-3.69,37-3.91,63.31,6.43,96.85,6.43,96.85,0.38-75.73,0-107.15S49.19,30.57,49.19,30.57Z"/><path class="cls-2" d="M387.82,299s16.16,35.81,20,75c2.56,25.89,6.18,51.52,6.18,51.52s-9.65,10.56-22.59,2.28-13.9-117.09-13.9-117.09Z"/><rect class="cls-5" x="395.19" width="3.53" height="28.28"/><rect class="cls-5" x="366.13" width="3.53" height="28.28"/><rect class="cls-5" x="337.07" width="3.53" height="28.28"/><rect class="cls-5" x="308.01" width="3.53" height="28.28"/><rect class="cls-5" x="278.95" width="3.53" height="28.28"/><rect class="cls-5" x="251.77" width="3.53" height="28.28"/><rect class="cls-5" x="226.93" width="3.53" height="28.28"/><path class="cls-5" d="M238.48,21.28H401.15s2.83,91.66.52,141.63C397.91,244,390.24,282,390.24,282l-3.68,13.31S394.22,341.19,397,362c7,51.52,7,72.64,7,72.64a13.5,13.5,0,0,0-4.55-4.21c-3.18-1.63-8.63.86-10.32,5-6.68,16.31-12.67,16.36-20.47,12.39-18.75-9.55-18.47-28.62-27.47-22a7.47,7.47,0,0,0-3.17,5.39c-0.64-6,3-44.54,8.27-62.74s13.59-60.79,13.59-60.79l-3.05-3.09s-11,29.19-18.51,51.17-13.4,66.63-12.36,77.27a25,25,0,0,1-1.12,11.27c-4.61-2.23-17.08-10.24-17.08-10.24s1.9-33.68,14.42-76.24c5.86-19.9,19.64-42.93,27.42-53.23-0.11-2.32-5.39-15.25-5.39-15.25s-49.67-8.41-82.64-82.27C232.05,141,219.82,21.28,219.82,21.28h18.66Z"/><path class="cls-1" d="M261.54,53.72s-13.69,56.47-3.78,98.42c19.58,82.92,58.68,100.28,58.68,100.28s-36.52-51.17-47.86-104.57S261.54,53.72,261.54,53.72Z"/><path class="cls-1" d="M291.75,28.85s-8.63,25.39-7.2,60.7S294.12,169,299,186.66c7,25.24,17.46,39.68,17.46,39.68S297.94,166.57,292.79,113,291.75,28.85,291.75,28.85Z"/><path class="cls-1" d="M364.91,308s0,16.74,1.69,31.68c3.26,28.8,7.74,47.39,7.74,47.39V309.27Z"/><path class="cls-1" d="M356.8,304.63S340.6,356.1,335,375.85a189.26,189.26,0,0,0-6.64,35.59s-1.25-35.72,4-56.32,21.17-52.2,21.17-52.2Z"/><path class="cls-2" d="M325.93,433.08c-1-10.65,4.81-55.29,12.36-77.27s18.51-51.17,18.51-51.17l3.05,3.09s-8.37,42.59-13.59,60.79-8.9,56.77-8.27,62.74c-0.74,6.36,5.2,13.87-1.16,15.57a9.85,9.85,0,0,1-2.89.23,20,20,0,0,1-5.9-1.3c-1.11-.41-2.19-0.9-3.24-1.41A25,25,0,0,0,325.93,433.08Z"/><path class="cls-2" d="M377.51,304.63s0.11,15.11,0,31.25c-0.07,9.78-2.92,58.39-2.92,58.39s-4.36-22-3.29-44.82c0.65-13.93.63-41,.63-41Z"/><path class="cls-2" d="M317.77,30.57s0,81.34,15.93,190c2.82,19.25,19.55,68,31.21,82.31-17.74-16.71-29.54-51.37-36.7-79.22C305,133.54,317.77,30.57,317.77,30.57Z"/><path class="cls-2" d="M362.08,251.06s6.45,40.44,12.27,48.17c3.77,5-4.13,2.58-4.13,2.58S360.53,282,362.08,251.06Z"/><path class="cls-2" d="M377.56,131c4.36,40.5-3.21,90.73-2.08,152.29C364,238.58,374.34,158.84,377.56,131Z"/><path class="cls-2" d="M259.65,28.28s5,75.62,11.29,110.45c4.51,25.09,27.52,91.19,51.91,122.12-25.76-16.14-52.63-85.17-59.07-120C252.69,80.85,259.65,28.28,259.65,28.28Z"/><path class="cls-2" d="M353.25,28.28c4.61,29.62,5.35,101.23,5.32,137.29C351.1,140.24,348.58,71.72,353.25,28.28Z"/><path class="cls-2" d="M291.75,28.85c0.34,30.94,3.37,66.88,5.5,97.74,1.77,25.79,20.53,103.35,20.53,103.35s-19.84-51.35-25-99.37C290.11,105.66,285.8,53.35,291.75,28.85Z"/><path class="cls-1" d="M352.28,370.57s-1.82,22.15-2.71,29.62a120.16,120.16,0,0,1-4,17.52s-1.23-11.85-.33-19.58S352.28,370.57,352.28,370.57Z"/><path class="cls-1" d="M334.57,86.14s6.39,68.58,9.6,91.76,12.62,70.66,12.62,70.66-14-41.29-19.71-77.87S334.57,86.14,334.57,86.14Z"/><path class="cls-1" d="M371.13,307.87c5.24-1.43,10.16-7.29,10.68-11.43-2.89,4-14.83,8-22.71,5.83-4.46-1.93-9.38-5.07-11.4-10.88h0c3.71,1.71,10.31,3.69,19.52,2.42A51.11,51.11,0,0,0,389.4,285s-0.3,14.25-3.19,17.89c-7.33,9.22-15.34,12.89-29.41,7.13a17.64,17.64,0,0,1-8.26-7.34C354.58,307.5,363.58,309.94,371.13,307.87Z"/><path class="cls-2" d="M347.69,291.39h0c2,5.8,6.95,9,11.4,10.88,7.88,2.18,19.82-1.82,22.71-5.83-0.52,4.13-5.44,10-10.68,11.43-7.55,2.06-16.55-.37-22.59-5.17a33.79,33.79,0,0,1-4.37-13.32A19.22,19.22,0,0,0,347.69,291.39Z"/><path class="cls-1" d="M391.88,30.57s3.69,37,3.91,63.31-6.43,96.85-6.43,96.85S389,115,389.4,83.57,391.88,30.57,391.88,30.57Z"/></svg>